<svg xmlns="http://www.w3.org/2000/svg" xml:space="preserve" version="1.0" viewBox="0 0 900 294">
    <path fill="#232323" d="M160.447 20.605c-.355-1.225-.858-2.56-2.524-2.548-1.482 0-2.131 1.09-2.131 2.119 0 1.408.93 2.058 2.45 2.842l.061.037c1.495.759 3.27 1.666 3.283 3.785 0 2.021-1.703 3.638-4.263 3.65a6.7 6.7 0 0 1-1.886-.281c-.478-.172-.772-.307-.944-.405-.159-.404-.416-2.058-.526-2.976l.55-.135c.32 1.176 1.189 3.111 3.161 3.111 1.446 0 2.303-.906 2.303-2.315 0-1.421-1.065-2.095-2.511-2.854l-.11-.062c-1.237-.649-3.063-1.617-3.075-3.723 0-1.85 1.47-3.43 3.957-3.443.882 0 1.69.209 2.425.429.074.625.16 1.286.294 2.29l.05.368-.564.123zm-9.972 9.861c.098-.613.282-2.45.319-3.1h-.588c-.16.784-.441 1.47-.723 1.9-.367.55-.882.759-2.327.93-.956.11-1.63.172-2.022-.012-.367-.208-.539-.6-.637-1.495l-.416-3.613 1.813-.208c1.666-.197 1.813-.098 2.217 1.249l.551-.061-.428-3.675-.552.061c-.098 1.31-.171 1.47-1.898 1.678l-1.801.209-.503-4.337c-.073-.576-.036-.612.564-.686l1.446-.171c1.371-.16 1.91-.086 2.217.281.294.392.539.796.796 1.568l.539-.159c-.049-.282-.11-.6-.16-.919-.134-.747-.269-1.482-.306-1.813l-8.526.993.062.539c1.506-.037 1.666 0 1.862 1.714l.882 7.608c.183 1.543.049 1.715-1.679 2.058l.062.539 9.212-1.066z"/>
    <path fill="#232323" fill-rule="evenodd" d="M128.732 21.438c2.376-.564 4.25-.503 5.671.318 1.127.674 2.107 1.886 2.536 3.65.539 2.242.074 4.116-1.102 5.55-1.14 1.42-2.88 2.327-5.182 2.878L126.22 34.9l-.122-.502c1.58-.502 1.703-.65 1.323-2.242l-1.801-7.497c-.38-1.605-.551-1.641-2.021-1.42l-.135-.54 5.255-1.262zM129 31.642c.343 1.42 1.041 1.629 2.413 1.298 3.504-.833 4.484-3.846 3.761-6.835-.465-1.924-1.568-3.418-3.283-3.945-.968-.343-2.107-.306-3.369 0-.784.184-1.25.404-1.408.576-.16.171-.16.392 0 1.127l1.862 7.779z" clip-rule="evenodd"/>
    <path fill="#232323" d="M111.998 28.506c-.282-.809.037-1.225.992-1.715l-.22-.49-4.14 1.862.22.49c1.237-.478 1.764-.441 2.205.306.27.466.71 1.237 1.433 2.854l1.948 4.312-.05.025-11.282-5.5-2.597 1.176.221.49c.857-.307 1.298-.331 1.85-.062.502.282.575.331 1.151 1.617l1.74 3.859c.722 1.617 1.053 2.475 1.25 3.05.293.895-.038 1.323-1.03 1.838l.22.49 4.153-1.874-.22-.49c-1.225.465-1.727.44-2.217-.417-.282-.49-.71-1.298-1.446-2.915l-1.984-4.398h.037l11.612 5.806.54-.245-3.186-7.068c-.735-1.63-1.053-2.438-1.225-2.989z"/>
    <path fill="#232323" fill-rule="evenodd" d="M100.005 39.04c2.193 3.529 1.078 7.216-1.91 9.078-2.953 1.837-6.738 1.005-8.698-2.12-1.838-2.94-1.483-6.945 1.947-9.076 2.769-1.728 6.615-1.14 8.649 2.131zm-9.212 5.452c1.911 3.063 4.986 4.25 7.289 2.818 1.813-1.127 2.499-3.663.539-6.8-2.144-3.441-5.084-4.152-7.215-2.817-1.826 1.14-2.511 3.749-.613 6.799" clip-rule="evenodd"/>
    <path fill="#232323" d="m85.991 55.713.331.429 4.03-3.124-.33-.429c-1.324.87-1.495.894-2.512-.416l-4.716-6.089c-1.005-1.286-.956-1.482.233-2.535l-.331-.429-4.03 3.124.33.428c1.324-.87 1.507-.882 2.512.417l4.716 6.088c1.005 1.299.956 1.482-.22 2.536zm-8.856-4.398c-.784-.526-1.238-.76-1.617-.833-.54-.122-.87 0-1.924.98l-.992.931 6.468 6.921c1.041 1.115 1.286 1.152 2.695-.012l.367.392-4.042 3.773-.368-.392c1.201-1.274 1.176-1.531.147-2.633l-6.468-6.922-.87.809c-1.163 1.09-1.347 1.47-1.224 1.96.049.392.306.894.722 1.678l-.404.38a121 121 0 0 0-2.193-2.695l.282-.257c.502.134.71 0 1.103-.368l5.549-5.194c.38-.355.416-.539.392-1.017l.294-.281c.6.649 1.63 1.604 2.462 2.352l-.367.428zM73.46 67.816c-.258-.674-1.042-1.96-1.544-2.732l-.527.294c.846 1.973.993 3.455-.281 4.95-1.887 2.229-5.133 2.266-7.89-.062-2.229-1.886-3.197-4.949-1.126-7.399 1.335-1.592 2.719-1.935 4.593-1.005l.27-.526a47 47 0 0 0-2.034-1.299l-.44-.281a5 5 0 0 1-.393.294c-.551.404-1.42 1.053-2.205 1.972-2.768 3.283-2.731 7.387.356 9.996 2.34 1.972 6.223 2.511 9.31-1.152.894-1.053 1.641-2.548 1.886-3.038z"/>
    <path fill="#232323" fill-rule="evenodd" d="m62.974 81.597-.454-.294c.54-1.102.503-1.323-.257-1.531-.576-.16-1.335-.33-2.193-.539l-.87-.208-2.253 3.43.073.098a59 59 0 0 0 1.531 1.972c.784 1.017 1.042.98 1.948-.147l.453.294-2.29 3.491-.454-.294c.527-1.102.576-1.396-.477-2.89l-6.26-8.882.184-.588c1.188.282 2.413.588 3.662.882 2.34.564 4.717 1.152 6.983 1.678 1.715.392 2.009.282 2.78-.698l.454.294-2.585 3.945zm-9.629-4.079-.024.037c.98 1.335 1.972 2.683 2.915 3.956l.184.258 1.948-2.965-5.035-1.274zm4.214 12.948c.123-.196.22-.392.318-.6l-.416-.294c-.294.33-.674.637-1.421.845-.65.196-1.286.331-2.487.515-1.029.134-2.548.281-3.258.294.073-1.556-.38-2.916-1.862-3.65-1.03-.515-2.034-.454-2.83.024-.76.44-1.323 1.213-1.948 2.474l-2.119 4.276.478.245c.784-1.287.906-1.397 2.376-.674l6.934 3.43c1.47.723 1.494.93.894 2.4l.49.246 2.242-4.533-.478-.245c-.784 1.336-.968 1.434-2.438.71L49.29 94.57l.27-.551c.44-.894.796-1.09 1.42-1.14.233-.024.478-.036.736-.06a42 42 0 0 0 2.879-.307c1.506-.22 2.241-.76 2.952-2.021zm-7.987.858c.135.6 0 1.237-.453 2.119l-.404.833-4.239-2.107c-.465-.233-.637-.404-.661-.564-.037-.183.036-.514.294-1.016.649-1.311 1.947-2.193 3.81-1.274.93.465 1.482 1.078 1.665 2.009z" clip-rule="evenodd"/>
    <path fill="#232323" d="M48.788 101.467c.564.318 2.132 1.298 2.634 1.666l-3.16 8.722-.503-.184c.466-1.69.38-1.886-1.09-2.425l-7.203-2.61c-1.63-.588-1.74-.465-2.377.907l-.502-.184 2.928-8.073c.318.11 1.029.319 1.751.54.307.085.625.183.907.269l-.098.551c-.82-.11-1.286-.073-1.764.012-.478.11-.772.564-1.25 1.862l-.502 1.372c-.208.564-.184.613.368.809l4.103 1.482.613-1.703c.588-1.629.478-1.776-.65-2.45l.197-.526 3.479 1.261-.196.527c-1.385-.233-1.544-.147-2.107 1.421l-.625 1.715 3.418 1.237c.845.307 1.274.343 1.617.098.343-.27.588-.894.918-1.8.503-1.372.54-1.936.209-2.5-.245-.44-.748-1.004-1.385-1.506l.27-.515zm-12.519 11.404c.355-.159.857-.208 1.813-.196l.073-.55c-1.102-.172-2.499-.405-3.357-.613l-.098.392c.282.38.356.563.245 1.065l-1.776 7.387c-.122.527-.22.76-.71.919l-.086.38c1.017.281 2.217.673 3.307 1.029l.135-.54c-.772-.416-1.262-.698-1.519-.992-.367-.343-.429-.759-.061-2.315l.282-1.164 9.212 2.206c1.482.355 1.629.55 1.335 2.278l.527.123 1.286-5.366-.527-.123c-.539 1.752-.76 1.85-2.242 1.507l-9.2-2.205.32-1.323c.342-1.409.538-1.69 1.065-1.886zm-3.737 13.194c-.061 1.078.135 1.568.968 1.74.564.134 1.421.269 3.197.465l7.705.845-.06.588-10.928 7.044v.037l4.802.526c1.764.196 2.683.233 3.246.245.993.012 1.262-.404 1.483-1.69l.539.061-.503 4.532-.539-.06c.062-1.116-.134-1.618-1.053-1.826-.588-.123-1.495-.282-3.259-.478l-4.214-.465c-1.396-.16-1.482-.123-1.972.171-.527.331-.723.735-.894 1.63l-.539-.062.318-2.83 10.486-6.92v-.062l-4.704-.515c-1.764-.196-2.646-.22-3.185-.22-.87 0-1.176.429-1.396 1.74l-.539-.062.502-4.508.54.061zm9.898 22.515h.54l.036-5.096h-.539c-.122 1.568-.22 1.728-1.874 1.715l-7.693-.061c-1.642-.012-1.752-.172-1.85-1.752h-.539l-.037 5.096h.54c.122-1.58.244-1.727 1.874-1.715l7.693.062c1.641.012 1.751.171 1.85 1.751"/>
    <path fill="#232323" fill-rule="evenodd" d="M233.812 225.767H85.746c-.624 0-1.139-.514-1.139-1.139s.515-1.139 1.14-1.139h55.786c2.817-1.507 4.9-3.087 5.218-4.68.882-4.41 2.646-14.087 0-23.336-2.646-6.921-9.297-11.674-16.966-14.932-2.278.33-5.022 1.274-7.24 3.552 1.948 1.654 3.345 2.511 3.516 2.61 0 0-7.987 5.634-9.837 10.387-1.163-1.506-5.733-6.076-7.546-6.713.846-1.788 5.133-8.207 9.972-10.253.478.76 1.262 1.617 2.131 2.438 1.397-1.311 3.234-2.597 5.574-3.357-8.183-2.94-16.966-4.385-23.128-5.096-.16 2.132-.147 4.52.037 7.607-12.422-2.057-25.235 3.271-25.235 3.271-.123-.637-2.573-13.315.306-20.58 5.353-1.984 19.294.245 26.374 1.764-.575 1.985-.98 3.736-1.237 5.586 6.04-.93 11.552-1.078 16.538-.71-1.875-2.61-5.256-6.1-11.123-8.771a45.2 45.2 0 0 1-12.495-8.502c-2.56 1.078-4.974 2.389-6.432 3.467-1.237-7.57-5.414-18.265-10.62-22.773 0 0 13.095-3.148 18.534-7.252.061.417.11.858.171 1.311.87 6.542 2.377 17.787 6.211 23.104-1.923.036-4.018.575-6.578 1.604 3.491 2.977 7.779 5.623 14.149 7.301-.319-1.445-.625-3.638-.27-6.443-1.004 0-1.482.098-2.548.282-.343-3.112-.698-9.2.392-11.405 3.246-.919 8.587.686 8.857.772 0 0-2.854 5.267-2.511 10.694-1.397-.22-1.458-.208-2.426-.233-.171 3.136.11 5.084.956 6.909 7.656 2.438 11.22 7.264 13.487 10.915 4.398.82 7.68 1.776 11.037 2.977-.061-1.446-.208-3.847-1.262-5.831-.857.232-1.519.539-2.511 1.016-.943-5.353-4.949-9.812-4.949-9.812.282-.16 5.072-2.952 8.428-2.83 1.58 1.899 2.658 7.902 3.05 11-1.188.074-1.31 0-2.4.283 1.261 2.609 1.629 4.814 1.861 6.994 2.377.907 4.472 1.801 6.272 2.573l.735.318c1.63-12.825-4.667-23.3-8.991-28.8-2.94 2.193-5.745 4.545-6.934 5.758-2.315-8.942-15.52-20.727-15.52-20.727.526-.257 11.16-5.806 14.687-10.302 8.27 4.68 14.627 17.125 15.815 20.519-1.445.33-3.908 1.813-6.456 3.613 1.924 1.421 4.239 3.443 6.713 6.285 1.152 1.31 2.169 2.83 3.112 4.495 1.25-1.102 2.94-2.854 4.165-5.132-1.789-.625-3.48-1.14-4.337-1.311 3.749-4.104 5.366-14.651 5.366-14.651.306.183 6.603 3.724 10.033 4.03.355 5.709-3.835 13.022-5.17 14.724-.674-.661-2.401-1.47-4.275-2.205-.698 2.328-2.058 4.9-4.263 7.448 2.082 4.41 3.736 9.506 5.34 14.48.442 1.348.87 2.683 1.312 3.994 15.888-13.243 11.306-37.84 8.023-49.258-2.168 1.421-4.422 3.198-7.276 5.758-6.823-12.3-20.372-19.796-20.372-19.796.466-.551 9.861-11.49 18.204-14.026 5.463 3.307 13.18 17.052 16.77 24.304-2.193.894-4.055 1.788-5.892 2.878 3.87 5.452 6.602 12.275 8.158 19.33 2.083-2.008 4.57-3.858 6.934-5.426-.87-.698-1.654-1.25-2.193-1.433.857-1.789 5.145-8.208 9.984-10.253 1.653 2.682 7.13 6.419 7.399 6.578 0 0-7.987 5.635-9.825 10.388-.637-.809-2.266-2.511-3.908-4.018-3.662 4.459-5.965 10.24-7.056 13.487.417 5.868 0 11.503-1.335 16.207 3.7-2.303 8.796-3.736 14.418-4.508.588-5.39 5.084-9.506 8.943-12.066-1.556-1.9-3.16-3.418-5.17-5.109 5.023-5.218 15.313-14.883 20.874-16.231 6.444 4.41 11.528 16.28 11.773 16.893 0 0-13.598 2.756-22.736 11.417-1.385-2.34-2.585-4.165-3.761-5.721-3.467 4.202-4.533 8.428-4.839 10.302 6.75-.478 13.88-.171 20.127.6.563-3.123.882-6.039.563-7.509 3.577-.38 17.542.147 25.272 5.66-2.585 5.096-3.124 17.076-3.136 17.664 0 0-16.268-6.994-25.333-5.316.576-1.531 1.482-4.863 2.205-8.318-12.838-.233-20.91 1.544-27.305 4.814 4.275.38 7.068.956 8.869 1.52.625-1.348 1.078-2.585 1.115-3.308 1.96.318 9.322 2.646 12.63 6.713-2.12 2.34-4.166 8.636-4.251 8.954 0 0-7.644-6.1-12.716-6.541a25.5 25.5 0 0 0 2.413-4.055c-3.062-.82-7.521-1.458-11.637-.796-2.364 1.519-4.337 2.695-6.542 4.63-2.695 2.353-4.716 5.476-6.1 8.918 1.041 1.532 1.703 3.724 1.703 6.187 0 3.981-1.703 7.288-3.994 8.134.306 5.512 1.985 10.461 4.9 13.328a13.7 13.7 0 0 0 2.144 1.568H233.8c.625 0 1.139.514 1.139 1.139s-.515 1.14-1.14 1.14zm-63.492-26.202c.209-2.328-.612-4.312-1.837-4.41-1.225-.11-2.389 1.69-2.597 4.018-.196 2.327.624 4.3 1.837 4.41 1.225.11 2.377-1.69 2.597-4.018" clip-rule="evenodd"/>
    <path fill="#232323" d="m164.526 29.706-.037.54 5.096.318.037-.54c-1.568-.208-1.715-.318-1.617-1.972l.478-7.68c.098-1.63.257-1.74 1.85-1.764l.036-.54-5.096-.306-.037.54c1.568.208 1.715.342 1.618 1.972l-.466 7.68c-.098 1.63-.257 1.74-1.85 1.764zm21.156-2.217c-1.164-.012-1.262.074-1.446 1.188l-.257 1.617c-.11.662-.184 1.274-.16 1.801l-.33.025c-1.176.098-2.646.208-4.042 0-4.178-.674-6.554-3.724-5.942-7.485.71-4.41 4.594-5.978 8.318-5.378 1.335.22 2.536.723 3.234 1.005.123.049.233.098.319.134-.05.674-.123 1.74-.172 3.014l-.551.024c-.086-2.388-1.421-3.246-3.222-3.54-2.903-.465-5.378 1.31-5.941 4.827-.441 2.731.661 6.186 4.324 6.774.65.11 1.262.061 1.715-.074.417-.147.674-.343.809-1.139l.257-1.617c.22-1.372.11-1.507-1.727-1.96l.085-.514 4.827.784-.086.514zm15.937-1.225c.319-.784.833-.894 1.887-.637l.159-.515-4.349-1.31-.16.514c1.25.453 1.618.833 1.459 1.69-.098.527-.282 1.397-.797 3.1l-1.372 4.532h-.06l-4.889-11.588-2.731-.82-.16.514c.846.33 1.2.6 1.434 1.176.196.539.208.624-.196 1.972l-1.225 4.055c-.515 1.69-.833 2.56-1.066 3.111-.368.87-.894.98-1.985.71l-.159.515 4.361 1.323.16-.514c-1.226-.454-1.58-.797-1.397-1.764.11-.552.318-1.446.833-3.149l1.396-4.618h.037l4.925 12.03.575.171 2.242-7.423c.515-1.715.809-2.536 1.041-3.063z"/>
    <path fill="#232323" fill-rule="evenodd" d="M223.828 49.625c2.94 1.935 6.762 1.42 9.053-2.046 2.12-3.21 1.066-6.958-1.666-8.759-3.369-2.23-7.166-.882-9.077 2.01-2.034 3.086-1.213 6.872 1.69 8.795m.71-.355c-2.265-1.495-2.461-4.79-.477-7.804 1.984-3.001 4.643-3.466 6.431-2.278 2.107 1.384 2.683 4.36.453 7.742-2.033 3.087-4.63 3.516-6.406 2.34" clip-rule="evenodd"/>
    <path fill="#232323" d="M249.37 54.218c-.92-.698-1.434-.784-2.022-.257-.38.355-.955.956-2.119 2.291l-1.053 1.2c-1.495 1.715-2.83 2.72-4.435 2.867-1.274.11-2.511-.429-3.467-1.262-.845-.735-1.506-1.666-1.715-2.72-.294-1.42.258-2.866 1.728-4.569l3.16-3.626c1.14-1.31 1.078-1.47.012-2.56l.356-.404 3.76 3.27-.355.405c-1.213-.931-1.396-.943-2.536.367l-2.878 3.308c-2.034 2.34-2.267 4.483-.466 6.051 2.095 1.826 4.263.65 6.346-1.751l.955-1.103c1.164-1.335 1.654-1.984 1.985-2.487.404-.637.257-1.078-.699-2.033l.356-.404 3.454 3.013-.355.404zm9.69 12.385c.685-.502 1.175-.318 1.935.453l.404-.355-3.001-3.405-.405.355c.821 1.041.931 1.556.343 2.205-.367.404-.98 1.041-2.315 2.205l-3.552 3.124-.037-.05 1.96-12.396-1.887-2.144-.404.355c.54.735.698 1.152.6 1.752-.122.564-.147.65-1.2 1.568l-3.185 2.793c-1.335 1.164-2.058 1.74-2.548 2.082-.772.552-1.274.356-2.058-.44l-.404.355 3.013 3.43.404-.356c-.808-1.029-.93-1.519-.257-2.241.38-.417 1.041-1.066 2.364-2.23l3.626-3.185.025.025-2.156 12.813.392.453 5.83-5.12c1.348-1.176 2.022-1.727 2.5-2.046z"/>
    <path fill="#232323" fill-rule="evenodd" d="M267.095 74.786c1.348 2.034 1.936 3.822 1.654 5.44-.245 1.298-1.041 2.633-2.548 3.638-1.923 1.273-3.846 1.482-5.586.87-1.727-.589-3.185-1.912-4.496-3.884l-2.523-3.797.429-.282c1.016 1.31 1.188 1.384 2.56.478l6.431-4.263c1.384-.92 1.36-1.09.637-2.39l.465-.305 2.99 4.508zm-9.481 3.761c-1.213.808-1.176 1.543-.392 2.707 1.984 3.002 5.157 2.891 7.717 1.189 1.654-1.09 2.67-2.659 2.573-4.435-.013-1.029-.441-2.082-1.152-3.16-.44-.674-.796-1.042-1.016-1.127-.221-.086-.43-.013-1.054.404l-6.664 4.422zm8.011 17.64-.477.245 2.107 4.226.477-.245c-.453-1.176-.416-1.47.797-2.756 1.592-1.678 3.283-3.442 4.936-5.17a482 482 0 0 0 2.634-2.756l-.416-.453-10.817.931c-1.813.147-2.034-.037-2.732-1.041l-.478.245 1.862 3.736.478-.245c-.527-1.348-.429-1.593.845-1.752a46 46 0 0 1 2.487-.33h.11l1.825 3.65c-.22.233-.44.466-.661.686a74 74 0 0 1-1.531 1.58c-.564.564-.772.478-1.458-.539zm7.877-6.076v.037l-3.626 3.7-1.58-3.173c1.666-.184 3.442-.38 5.206-.564" clip-rule="evenodd"/>
    <path fill="#232323" d="M280.154 108.168c.796-.515 1.188-.846 1.396-1.164.331-.453.343-.796-.147-2.156l-.465-1.286-8.894 3.246c-1.433.526-1.555.735-1.041 2.487l-.502.183-1.899-5.194.502-.184c.71 1.605.944 1.691 2.377 1.164l8.893-3.246-.404-1.127c-.551-1.507-.833-1.813-1.323-1.886-.392-.11-.943-.062-1.825 0l-.196-.527a94 94 0 0 0 3.332-.968l.135.368c-.319.404-.27.649-.086 1.163l2.61 7.142c.183.49.342.588.795.76l.135.38c-.833.306-2.12.881-3.136 1.347l-.245-.502zm-7.509 6.406-.527.135 1.298 4.937.527-.135c-.294-1.556-.233-1.727 1.36-2.144l7.448-1.96c1.58-.416 1.727-.294 2.241 1.2l.527-.134-1.298-4.937-.527.135c.294 1.556.22 1.74-1.36 2.156l-7.448 1.96c-1.58.416-1.74.294-2.241-1.2z"/>
    <path fill="#232323" fill-rule="evenodd" d="M282.518 134.052c-4.104.649-7.068-1.838-7.607-5.317-.54-3.442 1.715-6.602 5.365-7.166 3.418-.539 6.97 1.36 7.595 5.353.503 3.234-1.543 6.53-5.353 7.13m-1.421-10.633c-3.577.563-5.868 2.927-5.451 5.61.33 2.107 2.4 3.737 6.051 3.16 4.006-.624 5.819-3.05 5.427-5.548-.33-2.132-2.462-3.786-6.015-3.222z" clip-rule="evenodd"/>
    <path fill="#232323" d="M287.577 149.021c.846.05 1.115.502 1.213 1.58h.539l-.16-4.557-.538.025c-.025 1.335-.257 1.8-1.127 1.923-.54.074-1.421.184-3.185.245l-4.729.172v-.062l9.36-8.366-.099-2.842-.539.024c-.049.907-.183 1.335-.649 1.74-.453.367-.527.404-1.923.453l-4.227.147c-1.776.061-2.695.037-3.295 0-.943-.061-1.213-.539-1.31-1.654l-.54.025.16 4.557.539-.025c.024-1.31.245-1.764 1.225-1.886.551-.074 1.482-.172 3.246-.233l4.826-.172v.037l-9.787 8.55.024.601 7.754-.282c1.789-.061 2.659-.061 3.234 0zm-206.13-25.039c-2.524-6.737-13.72-14.773-13.72-14.773.392-.245 8.158-5.415 10.522-9.188 6.799 2.953 12.74 12.067 13.928 14.59-2.584.882-9.052 7.264-10.73 9.371m159.74-33.846s-7.338 5.5-10.327 13.266c-3.92-2.621-6.064-3.54-9.347-4.385 1.519-4.545 4.912-13.218 7.84-15.607 5.047.796 11.368 6.333 11.809 6.726zm-83.362-3.859c3.075.318 10.058-1.372 12.262-2.5-.673 3.063 2.095 13.525 3.54 17.335-1.763-.637-8.084 1.016-12.25 2.499.589-7.853-3.552-17.334-3.552-17.334m25.945 34.3c-1.004 6.125-3.172 12.213-7.325 16.06 3.063-5.917 3.957-12.74 4.349-17.224-2.45-.845-4.9-1.409-6.7-1.384 3.65-5.476 4.752-16.795 5.39-23.349.048-.453.085-.882.122-1.298 5.598 3.908 18.791 6.578 18.791 6.578-5.047 4.692-8.844 15.52-9.812 23.14-1.164-.796-2.879-1.715-4.814-2.536zm5.918-26.301c2.658-5.341 8.244-20.139 7.705-24.696 3.05 1.972 12.948 5.476 17.468 5.451 0 0-7.411 13.194-7.717 24.696-5.843-2.78-14.786-6.113-17.456-5.451m34.606 35.023c7.227-4.63 16.341-13.683 18.644-21.046 0 0 9.053 12.042 15.692 15.815-.392.245-.82.49-1.274.76-6.308 3.797-17.199 10.35-20.947 16.66-1.887-4.129-8.428-10.082-12.115-12.19m13.45 37.118c.735-3.074-3.148-13.315-6.382-20.004 13.218-.429 28.298-9.028 28.298-9.028.012 5.194 4.103 16.525 6.382 20.016-5.231-.588-22.197 5.93-28.298 9.029zm-39.139-44.602c8.135-4.361 16.477-19.98 16.477-19.98.38.453 8.269 9.47 13.487 11.834-2.597 9.138-13.181 18.277-16.207 20.212-.588-1.2-2.695-3.368-4.777-5.243-2.83 2.683-5.268 6.346-7.228 13.488-.453-6.064 1.96-11.479 5.219-15.154-2.952-2.499-5.427-4.25-6.958-5.17zm-85.1-29.902s-7.277-10.523-13.475-12.973c1.984-1.519 8.024-7.423 8.881-9.812 2.328 1.139 10.694 6.823 13.304 13.169-3.553 2.131-8.477 9.26-8.698 9.616zm72.507-6.848c-5.843-.845-8.758-.735-12.923.086-.748-5.954-1.605-17.616.429-21.903 6.198-1.85 16.488 1.066 17.002 1.225 0 0-5.316 10.192-4.508 20.592m-65.194 37.963c-4.324.257-13.022 2.72-16.623 5.647-.552-7.485-7.51-18.4-11.552-24.745-.294-.465-.576-.894-.833-1.31 7.779-.417 21.536-7.314 21.536-7.314-1.238 7.779 2.964 20.2 7.46 27.722zm-39.555 21.18c-1.666 2.193-2.205 11.711-1.985 18.191-10.67-4.324-25.725-2.793-25.725-2.793 1.826-4.14 2.573-14.614 1.985-18.191 3.969 2.315 19.771 3.111 25.725 2.793m59.302-44.32c-4.937-11.785-16.427-19.907-16.427-19.907.478-.453 10.045-9.395 17.836-10.853 4.606 3.528 10.204 16.697 12.74 23.606-2.732.784-3.626.943-6.015 2.192 1.213 1.911 1.347 5.28.71 7.828-.49-2.474-2.695-5.341-3.675-6.162-1.519.895-3.209 1.911-5.145 3.296zm26.338-24.219c-5.194-.33-8.76-.036-15.717 1.801-.625-11.956-8.685-22.773-8.685-22.773.6-.245 12.642-5.083 20.457-3.895 3.136 4.581 3.92 17.983 3.945 24.867m-49.735 26.044s9.04-4.006 12.409-7.693c.049.159.098.318.159.477.049.147.098.307.147.466 1.507 4.606 4.08 12.52 7.558 15.852-2.915.588-7.693 3.895-9.591 5.94-1.9-5.303-6.346-12.47-10.695-15.03z"/>
    <path fill="#232323" fill-rule="evenodd" d="M12.798 147c0-81.193 65.819-147 147-147s147 65.807 147 147-65.807 147-147 147c-81.181 0-147-65.807-147-147m4.042 0c0 78.951 64.006 142.957 142.958 142.957S302.755 225.951 302.755 147 238.761 4.042 159.798 4.042 16.84 68.05 16.84 147" clip-rule="evenodd"/>
    <path fill="#232323" d="M179.165 254.567c0 2.083-.392 3.896-1.176 5.427s-1.801 2.78-3.05 3.76a13 13 0 0 1-4.264 2.194c-1.58.477-3.209.722-4.887.722h-10.156v-1.225c.331 0 .772-.024 1.299-.086q.808-.11 1.066-.22c.343-.147.588-.367.747-.662a2.2 2.2 0 0 0 .245-1.065v-17.677c0-.392-.074-.747-.208-1.053-.123-.307-.392-.552-.772-.735a4.5 4.5 0 0 0-1.152-.38 9 9 0 0 0-1.065-.16v-1.224h10.706c1.47 0 2.928.232 4.349.686 1.433.453 2.67 1.053 3.724 1.825 1.445 1.029 2.572 2.364 3.381 4.018.82 1.654 1.225 3.614 1.225 5.855zm-4.226-.012c0-1.642-.221-3.136-.662-4.459q-.661-2.003-1.911-3.491a8.4 8.4 0 0 0-2.94-2.23c-1.151-.539-2.438-.808-3.846-.808-.466 0-1.005 0-1.605.036-.588 0-1.03.025-1.311.037v18.84c0 1.054.306 1.777.919 2.181.612.404 1.543.6 2.817.6 1.458 0 2.744-.257 3.835-.771 1.09-.515 1.984-1.238 2.658-2.156a9.6 9.6 0 0 0 1.556-3.345c.33-1.274.502-2.756.502-4.422zM149.47 266.67h-7.802v-1.139c.514-.061.955-.11 1.31-.172.368-.06.552-.208.552-.453 0-.098-.062-.27-.172-.478-.11-.22-.233-.416-.343-.6a131 131 0 0 0-1.188-1.8 99 99 0 0 0-1.825-2.708 45 45 0 0 0-1.654 2.193c-.502.698-1.041 1.445-1.593 2.242-.086.11-.171.257-.257.429s-.123.306-.123.416c0 .257.16.465.478.637.331.16.833.27 1.482.33v1.103h-6.308v-1.066c.784-.232 1.409-.502 1.886-.833.478-.33.931-.747 1.323-1.225.355-.465.858-1.09 1.483-1.898a102 102 0 0 0 2.486-3.283c-.588-.845-1.31-1.862-2.156-3.075-.845-1.225-1.531-2.23-2.094-3.038a3.9 3.9 0 0 0-1.042-1.053c-.38-.27-.918-.417-1.629-.417v-1.14h7.411v1.14c-.367 0-.735.024-1.09.073-.355.05-.539.147-.539.307 0 .098.037.22.098.343s.16.27.257.416c.258.392.65.992 1.176 1.813.54.821 1.127 1.679 1.74 2.585.404-.551.87-1.2 1.396-1.936a49 49 0 0 0 1.483-2.106 1.3 1.3 0 0 0 .134-.294 1 1 0 0 0 .074-.368c0-.245-.196-.429-.6-.576a5.4 5.4 0 0 0-1.127-.306v-1.102h6.284v1.065c-.882.233-1.58.503-2.07.833-.49.307-.92.674-1.262 1.09a81 81 0 0 0-1.36 1.74c-.514.686-1.25 1.654-2.193 2.903 1.054 1.47 1.899 2.683 2.56 3.626.662.944 1.324 1.911 1.985 2.916q.495.753 1.103 1.213c.416.281.98.453 1.69.502v1.139zm-22.368 0h-11.037v-1.225c.306-.024.76-.061 1.348-.098.588-.049 1.004-.11 1.237-.208.38-.147.661-.355.833-.6.171-.27.257-.625.257-1.09v-17.75c0-.405-.061-.736-.196-1.005-.122-.27-.429-.503-.894-.686a8 8 0 0 0-1.311-.38 8.4 8.4 0 0 0-1.274-.22v-1.225h11.037v1.225c-.355 0-.784.06-1.274.134s-.93.16-1.298.27c-.441.134-.735.367-.882.673s-.22.662-.22 1.042v17.726c0 .38.085.722.244 1.016.172.282.466.515.858.686.245.086.637.196 1.176.306.551.098 1.017.16 1.396.172zm57-24.5v1.225c.306.025.722.098 1.249.209s.955.245 1.262.392c.404.183.661.428.796.722.122.282.196.625.196 1.005V263.4c0 .416-.086.771-.245 1.065q-.22.423-.735.662c-.172.086-.551.147-1.127.208-.576.05-1.041.074-1.384.098v1.225h10.62v-1.225c-.294 0-.735-.073-1.31-.196-.576-.11-.956-.208-1.127-.294-.38-.184-.65-.429-.797-.723a2.26 2.26 0 0 1-.22-1.016v-8.44h1.63c2.302 0 2.841.281 3.196.575.233.196.441.515.637.956.209.44.343.796.368.943h1.31v-6.358h-1.31a3.7 3.7 0 0 1-.38 1.188q-.276.552-.625.809c-.33.257-.894.49-3.197.49h-1.63v-9.788h6.542c2.303 0 2.842.282 3.198.576.232.196.44.514.637.955.208.441.367.944.367.944h1.31v-3.896h-19.22zM64.395 225.804c-.343 0-.674-.147-.907-.429-15.361-18.865-24.782-41.588-27.22-65.733a1.167 1.167 0 0 1 1.042-1.274 1.16 1.16 0 0 1 1.274 1.041c2.388 23.692 11.625 45.999 26.705 64.497.404.502.33 1.237-.172 1.641a1.2 1.2 0 0 1-.735.257zm190.805 0c-.257 0-.514-.086-.735-.257a1.167 1.167 0 0 1-.171-1.641c15.08-18.51 24.316-40.805 26.705-64.497a1.16 1.16 0 0 1 1.274-1.041 1.167 1.167 0 0 1 1.041 1.274c-2.438 24.145-11.846 46.88-27.22 65.733a1.17 1.17 0 0 1-.906.43zM213.832 29.4l-.282.564c.135.085.307.208.515.38.22.17.38.33.49.465.147.171.208.343.196.514 0 .16-.061.331-.147.503l-4.042 8.06c-.098.184-.209.33-.356.429-.134.098-.294.135-.49.135-.098 0-.282-.062-.563-.16-.27-.11-.49-.196-.65-.27l-.281.564 4.839 2.426.281-.564a4.5 4.5 0 0 1-.551-.392 3.4 3.4 0 0 1-.441-.392.82.82 0 0 1-.196-.514c0-.172.049-.343.135-.515l1.935-3.846.747.367c1.054.527 1.238.784 1.323.992q.093.22.074.588c0 .245-.025.441-.049.515l.6.306 1.458-2.903-.6-.306c-.123.183-.27.33-.441.453-.172.123-.319.196-.466.22-.208.037-.514.025-1.568-.502l-.747-.367 2.242-4.472 2.989 1.495c1.053.527 1.237.784 1.323.992q.09.22.073.588c0 .245-.049.515-.049.515l.6.306.895-1.776-8.771-4.398z"/>
    <path fill="#232323" fill-rule="evenodd" d="M643.207 94.803c1.494 1.568 2.67 3.454 3.516 5.672.845 2.217 1.262 4.667 1.262 7.362s-.417 5.157-1.287 7.374c-.857 2.205-2.045 4.092-3.589 5.648a15.3 15.3 0 0 1-5.157 3.552c-1.96.833-4.055 1.25-6.26 1.25-2.364 0-4.545-.442-6.541-1.336s-3.724-2.119-5.146-3.711q-2.15-2.334-3.38-5.66c-.821-2.217-1.238-4.594-1.238-7.117 0-2.769.429-5.243 1.299-7.411.857-2.169 2.045-4.043 3.552-5.623a15.6 15.6 0 0 1 5.219-3.602c1.984-.833 4.067-1.25 6.235-1.25s4.361.43 6.346 1.275a15.2 15.2 0 0 1 5.169 3.577m-3.553 24.169c.882-1.458 1.544-3.111 1.948-4.961.392-1.85.6-3.908.6-6.174s-.232-4.496-.673-6.444c-.453-1.96-1.115-3.626-1.997-4.998-.87-1.36-1.972-2.425-3.295-3.185-1.323-.772-2.83-1.151-4.545-1.151q-2.866 0-4.888 1.323-2.002 1.323-3.27 3.528c-.797 1.408-1.397 3.062-1.777 4.961-.404 1.886-.588 3.883-.588 5.966q0 3.454.625 6.247c.417 1.862 1.066 3.516 1.96 4.962.858 1.408 1.936 2.51 3.246 3.307 1.311.796 2.879 1.188 4.692 1.188 1.703 0 3.246-.404 4.606-1.2 1.372-.796 2.5-1.923 3.357-3.369" clip-rule="evenodd"/>
    <path fill="#232323" d="M544.73 124.46a14.5 14.5 0 0 0 5.806 1.2c3.099 0 5.794-.722 8.048-2.168q3.381-2.167 5.439-7.24l-1.813-.857a13.4 13.4 0 0 1-1.482 2.928 12 12 0 0 1-2.095 2.4c-.784.675-1.715 1.214-2.805 1.618-1.078.416-2.254.612-3.54.612-1.716 0-3.259-.38-4.655-1.151-1.385-.772-2.573-1.825-3.602-3.197-1.017-1.372-1.8-2.965-2.328-4.79-.55-1.813-.82-3.81-.82-5.99 0-2.463.257-4.704.784-6.701.526-1.997 1.25-3.65 2.168-4.95.968-1.347 2.12-2.363 3.43-3.05q1.984-1.028 4.3-1.028c1.347 0 2.536.306 3.589.918s1.948 1.458 2.72 2.548c.673.956 1.273 2.12 1.776 3.504.502 1.372.882 2.646 1.139 3.834h1.96l-.208-12.127h-1.911l-.98 1.629a16.3 16.3 0 0 0-3.859-1.74c-1.348-.416-2.854-.624-4.533-.624-2.241 0-4.348.428-6.32 1.298a15 15 0 0 0-5.133 3.675c-1.458 1.593-2.61 3.504-3.443 5.72-.82 2.218-1.25 4.68-1.25 7.412s.43 5.17 1.275 7.338c.833 2.168 1.972 4.006 3.38 5.512a14.8 14.8 0 0 0 4.925 3.467zm-181.007.355h-15.275V123.1c.342-.024.796-.061 1.384-.098l.49-.036c.808-.062 1.384-.16 1.715-.294.526-.209.894-.49 1.139-.846.245-.355.355-.857.355-1.494V95.697c0-.564-.086-1.029-.257-1.409-.184-.367-.588-.686-1.237-.943-.49-.196-1.078-.368-1.813-.539s-1.323-.27-1.789-.294v-1.715h15.276v1.715a16 16 0 0 0-1.776.171c-.686.11-1.287.233-1.801.392-.6.196-1.017.503-1.213.931a3.3 3.3 0 0 0-.306 1.446v24.61c0 .527.122.992.343 1.397.233.416.625.735 1.176.967.33.123.882.27 1.641.417.76.147 1.397.233 1.924.257v1.715zM402.556 92.5c-.453.012-1.127.147-2.058.38-.907.244-1.58.49-1.972.747-.576.404-.968 1.163-1.152 2.303-.208 1.139-.294 2.584-.294 4.324v24.929h-2.058L374.48 97.326v17.542c0 1.972.122 3.48.367 4.533s.625 1.813 1.14 2.254c.355.355 1.127.686 2.266.98q1.726.459 2.278.477v1.715h-13.903v-1.715c.44-.024 1.151-.183 2.168-.465 1.029-.282 1.654-.539 1.91-.747q.828-.681 1.14-2.058c.208-.919.306-2.487.306-4.717V98.38c0-.735-.134-1.47-.38-2.205-.245-.735-.587-1.299-1.028-1.703-.564-.527-1.348-.98-2.316-1.348-.992-.38-1.764-.575-2.389-.612v-1.715h9.666l19.06 25.921V100.56c0-1.972-.11-3.491-.367-4.557s-.624-1.764-1.102-2.119c-.453-.306-1.176-.6-2.18-.882-1.017-.294-1.777-.441-2.304-.478V90.81h13.745v1.715zm30.22 7.509h1.666v-9.224h-29.559v9.224h1.666c.147-.527.404-1.188.76-1.997.367-.808.796-1.568 1.274-2.29a13 13 0 0 1 1.568-1.936c.563-.564 1.114-.882 1.641-.956a27 27 0 0 1 2.107-.159 57 57 0 0 1 1.85-.037h1.384v27.428c0 .662-.134 1.176-.367 1.568-.245.392-.625.686-1.164.907-.343.135-.98.257-1.899.355-.906.098-1.604.16-2.046.184v1.715h16.011v-1.715c-.502-.013-1.212-.123-2.131-.307-.907-.196-1.52-.343-1.801-.453-.563-.233-.943-.576-1.164-1.017-.233-.44-.33-.93-.33-1.457v-27.22h1.384c.637 0 1.335.012 2.082.05.76.036 1.372.085 1.875.146.526.086 1.065.404 1.629.956.563.551 1.09 1.2 1.58 1.935.466.698.87 1.446 1.25 2.242s.636 1.47.784 2.046zm32.769 14.798-.637 10.02H436.77v-1.714c.49-.025 1.115-.099 1.923-.197.797-.098 1.323-.208 1.556-.33.515-.233.87-.552 1.078-.931.196-.38.294-.87.294-1.458V95.746c0-.527-.086-.992-.27-1.396-.171-.417-.538-.736-1.102-.993-.429-.208-1.017-.392-1.727-.551-.735-.16-1.311-.257-1.74-.282V90.81h26.24v8.196h-1.825c-.307-1.213-1.005-2.5-2.046-3.86-1.066-1.359-2.058-2.106-3.014-2.229-.502-.061-1.09-.11-1.776-.147a44 44 0 0 0-2.327-.049h-5.305v13.512h3.81c1.213 0 2.107-.11 2.67-.343.564-.233 1.066-.625 1.483-1.164.343-.465.637-1.078.894-1.85.245-.783.417-1.506.49-2.192h1.813V114h-1.813c-.061-.772-.245-1.58-.515-2.438-.281-.845-.563-1.47-.87-1.85-.49-.625-1.053-1.029-1.678-1.225-.612-.196-1.445-.294-2.474-.294h-3.81v10.204c0 1.03.061 1.826.22 2.426.136.588.405 1.041.834 1.335q.625.459 1.69.588c.723.086 1.728.135 3.05.135h2.083c.858 0 1.58-.037 2.168-.098a13.5 13.5 0 0 0 1.874-.343c.637-.172 1.103-.392 1.372-.686.735-.772 1.495-1.936 2.291-3.491.809-1.556 1.323-2.708 1.544-3.443h1.715zm130.267-14.798h-1.666c-.147-.576-.404-1.25-.784-2.046a16.6 16.6 0 0 0-1.262-2.242c-.478-.735-1.005-1.384-1.568-1.935s-1.103-.87-1.63-.956a27 27 0 0 0-1.874-.146 42 42 0 0 0-2.082-.05h-1.384v27.22c0 .527.098 1.017.33 1.458.22.44.613.784 1.164 1.017.282.11.882.269 1.789.453.906.196 1.629.294 2.131.306v1.715H572.99v-1.715a43 43 0 0 0 2.033-.184c.92-.098 1.556-.22 1.911-.355.515-.208.907-.514 1.152-.906s.367-.92.367-1.568V92.647h-1.384c-.502 0-1.115.012-1.85.037s-1.433.073-2.107.159c-.526.073-1.078.392-1.641.955-.564.564-1.09 1.213-1.568 1.936s-.894 1.482-1.274 2.29c-.355.809-.613 1.47-.76 1.997h-1.666v-9.224h29.56v9.224zm2.29 24.806h15.264V123.1c-.527-.012-1.164-.098-1.923-.257-.76-.147-1.299-.294-1.63-.416-.563-.233-.943-.564-1.188-.968-.232-.404-.343-.87-.343-1.397v-24.61c0-.527.098-1.017.319-1.445.208-.43.612-.735 1.212-.931.503-.16 1.103-.294 1.789-.392.698-.11 1.286-.16 1.776-.172v-1.715h-15.263v1.715c.465.037 1.053.135 1.776.294.723.172 1.323.343 1.8.539.65.257 1.067.576 1.25.943.184.368.258.846.258 1.409v24.635c0 .637-.11 1.139-.344 1.494-.245.356-.624.65-1.151.846-.33.134-.907.22-1.715.294l-.245.024c-.686.049-1.237.098-1.617.123v1.715zm86.89-31.935c.918-.233 1.604-.368 2.045-.38v-1.715h-13.756V92.5c.526.037 1.298.184 2.315.478s1.74.588 2.18.882c.49.343.846 1.053 1.103 2.119s.392 2.585.392 4.557v16.158l-19.06-25.921h-9.666v1.715c.6.036 1.396.232 2.376.612.993.368 1.752.82 2.34 1.348.417.404.772.967 1.029 1.702s.38 1.47.38 2.205v16.746c0 2.23-.098 3.798-.306 4.716-.209.919-.588 1.605-1.152 2.058-.245.22-.882.466-1.899.748s-1.74.44-2.168.465v1.715h13.904v-1.715q-.552-.018-2.279-.478c-1.151-.306-1.91-.637-2.278-.98-.515-.44-.894-1.2-1.14-2.254-.244-1.053-.367-2.56-.367-4.532V97.302l20.543 27.856h2.07V100.23c0-1.74.099-3.185.295-4.325.208-1.127.588-1.898 1.163-2.303.392-.257 1.054-.502 1.973-.747z"/>
    <path fill="#232323" fill-rule="evenodd" d="M734.102 108.008q0 4.336-1.617 7.534c-1.09 2.132-2.499 3.871-4.239 5.23s-3.723 2.377-5.904 3.051a22.8 22.8 0 0 1-6.762 1.005h-14.039v-1.715c.478 0 1.078-.05 1.826-.135.747-.086 1.237-.184 1.47-.306.477-.209.82-.515 1.04-.92.221-.403.32-.906.32-1.47V95.735c0-.54-.086-1.03-.282-1.458q-.276-.644-1.103-1.029a7 7 0 0 0-1.617-.527 12 12 0 0 0-1.494-.208v-1.715h14.822c2.034 0 4.055.319 6.027.943 1.972.637 3.7 1.483 5.157 2.56 1.997 1.422 3.565 3.284 4.692 5.587s1.69 5.01 1.69 8.134zm-5.868-.012c0-2.29-.294-4.349-.894-6.198a14.5 14.5 0 0 0-2.646-4.84 11.7 11.7 0 0 0-4.042-3.086c-1.605-.76-3.37-1.127-5.317-1.127q-.974 0-2.205.037c-.82.024-1.42.036-1.825.06v26.155c0 1.457.429 2.462 1.262 3.025.845.564 2.143.833 3.883.833 2.009 0 3.785-.355 5.28-1.078 1.506-.722 2.731-1.715 3.662-3.001.993-1.348 1.703-2.903 2.156-4.655.466-1.776.674-3.81.674-6.125z" clip-rule="evenodd"/>
    <path fill="#232323" d="m766.185 124.815.637-10.02h-1.715c-.22.735-.735 1.874-1.544 3.442-.796 1.556-1.568 2.72-2.29 3.491-.27.294-.735.515-1.372.686s-1.274.282-1.875.343c-.588.061-1.31.098-2.168.098h-2.083c-1.323 0-2.327-.049-3.05-.135q-1.084-.127-1.69-.588c-.417-.306-.699-.747-.846-1.335-.134-.588-.208-1.396-.208-2.425v-10.204h3.81c1.029 0 1.862.098 2.474.294.625.196 1.189.6 1.679 1.225.306.38.588 1.004.87 1.85.281.857.453 1.665.514 2.437h1.813v-13.316h-1.813a12.6 12.6 0 0 1-.49 2.193c-.257.772-.551 1.397-.894 1.85-.429.539-.919.93-1.495 1.163-.563.233-1.445.343-2.67.343h-3.81V92.696h5.304c.87 0 1.654.024 2.34.049.674.036 1.274.073 1.776.147.944.134 1.948.87 3.014 2.23 1.053 1.359 1.74 2.645 2.07 3.858h1.813v-8.195h-26.24V92.5c.43.036 1.017.122 1.74.281q1.102.24 1.727.552.845.386 1.103.992c.184.404.27.87.27 1.396v24.451c0 .588-.099 1.078-.295 1.458-.208.392-.563.698-1.078.931-.232.11-.76.22-1.556.331-.808.098-1.433.171-1.923.196v1.715h28.138zm25.259-15.618a7.9 7.9 0 0 1 1.593 2.621c.343.955.514 2.058.514 3.332 0 3.001-1.102 5.488-3.32 7.436-2.205 1.948-4.96 2.928-8.244 2.928a15 15 0 0 1-4.532-.711c-1.52-.478-2.818-1.053-3.92-1.715l-1.03 1.74h-1.91l-.331-11.638h1.948c.404 1.433.857 2.732 1.396 3.883a13.7 13.7 0 0 0 2.12 3.247 9.3 9.3 0 0 0 2.89 2.241c1.103.564 2.39.833 3.86.833 1.09 0 2.057-.147 2.878-.429.82-.281 1.482-.698 1.984-1.212.515-.527.882-1.152 1.14-1.85q.367-1.065.367-2.462c0-1.348-.38-2.622-1.151-3.798-.76-1.176-1.9-2.058-3.406-2.67a180 180 0 0 0-3.552-1.385 47 47 0 0 1-3.467-1.433c-1.911-.857-3.406-1.997-4.447-3.393-1.066-1.397-1.592-3.222-1.592-5.488 0-1.299.257-2.499.784-3.626.526-1.115 1.286-2.12 2.241-3.001.92-.833 2.01-1.483 3.271-1.96a11 11 0 0 1 3.945-.71c1.555 0 2.952.232 4.177.722a19.4 19.4 0 0 1 3.38 1.69l.98-1.629h1.912l.196 11.295h-1.948a47 47 0 0 0-1.176-3.712 14 14 0 0 0-1.703-3.21c-.698-.93-1.519-1.666-2.511-2.217-.98-.551-2.193-.82-3.626-.82-1.52 0-2.793.477-3.859 1.457-1.066.968-1.605 2.156-1.605 3.565s.343 2.683 1.03 3.65c.698.968 1.678 1.764 2.988 2.377a41 41 0 0 0 3.418 1.458 49 49 0 0 1 3.259 1.31 23 23 0 0 1 2.756 1.422 10.5 10.5 0 0 1 2.303 1.85zm5.917 15.618h15.276V123.1c-.527-.012-1.164-.098-1.923-.257-.76-.147-1.299-.294-1.63-.416-.563-.233-.967-.564-1.188-.968-.233-.404-.343-.87-.343-1.397v-24.61c0-.527.098-1.017.306-1.445.22-.43.613-.735 1.237-.931.503-.16 1.103-.294 1.789-.392a14 14 0 0 1 1.764-.172v-1.715h-15.276v1.715c.466.037 1.066.135 1.789.294.735.172 1.335.343 1.813.539.65.257 1.066.576 1.25.943.183.368.257.846.257 1.409v24.635c0 .637-.11 1.139-.356 1.494-.232.356-.612.65-1.139.846-.33.134-.906.22-1.715.294l-.245.024c-.698.049-1.237.098-1.63.123v1.715zm52.332-13.597q-.57.073-1.544.22c-.637.098-1.163.245-1.568.441a2.05 2.05 0 0 0-1.004 1.03c-.208.44-.306.955-.306 1.555v2.646c.012 1.923.012 3.222.036 3.896.025.673.05 1.224.086 1.666a36 36 0 0 1-6.32 2.217c-2.108.514-4.166.771-6.187.771-2.168 0-4.263-.404-6.26-1.224s-3.76-1.973-5.243-3.48c-1.506-1.519-2.72-3.368-3.601-5.549-.882-2.18-1.336-4.606-1.336-7.3s.417-4.999 1.274-7.216c.858-2.217 2.058-4.14 3.614-5.782a16.1 16.1 0 0 1 5.402-3.736c2.107-.894 4.337-1.336 6.726-1.336 1.91 0 3.577.233 4.985.699 1.41.465 2.67 1.017 3.749 1.678l.968-1.63h1.91l.209 11.896h-1.96a35 35 0 0 0-1.237-3.86 13.2 13.2 0 0 0-1.911-3.405 8.9 8.9 0 0 0-2.842-2.4c-1.127-.601-2.463-.895-4.03-.895-1.691 0-3.222.343-4.558 1.041-1.335.699-2.499 1.728-3.49 3.112-.956 1.335-1.716 2.989-2.243 4.973-.514 1.985-.784 4.202-.784 6.652 0 2.168.258 4.202.772 6.113.527 1.91 1.274 3.565 2.254 4.961.992 1.433 2.217 2.548 3.712 3.369 1.47.82 3.16 1.225 5.022 1.225 1.41 0 2.683-.22 3.835-.65 1.151-.44 1.96-.894 2.45-1.384.122-.833.196-1.678.208-2.523v-4.055c0-.674-.086-1.274-.27-1.8-.183-.527-.563-.907-1.139-1.152-.526-.233-1.25-.417-2.143-.54a26 26 0 0 0-2.12-.22v-1.727h14.872v1.727zm35.39-18.338c.919-.233 1.617-.368 2.046-.38v-1.715h-13.744V92.5c.526.037 1.298.184 2.303.478 1.016.294 1.727.588 2.18.882.478.343.845 1.053 1.103 2.119.257 1.066.392 2.585.392 4.557v16.158l-19.074-25.921h-9.665v1.715c.613.036 1.409.232 2.389.612.98.368 1.752.82 2.327 1.348.43.404.772.967 1.03 1.702.257.735.38 1.47.38 2.205v16.746c0 2.23-.099 3.798-.32 4.716-.208.919-.575 1.605-1.139 2.058-.257.22-.882.466-1.91.748-1.017.281-1.728.44-2.169.465v1.715h13.904v-1.715q-.552-.018-2.279-.478c-1.139-.306-1.898-.637-2.266-.98-.514-.44-.894-1.2-1.14-2.254-.244-1.053-.367-2.56-.367-4.532V97.302l20.544 27.856h2.058V100.23c0-1.74.098-3.185.294-4.325.208-1.127.588-1.898 1.151-2.303.392-.257 1.066-.502 1.972-.747z"/>
    <path fill="#232323" fill-rule="evenodd" d="M446.962 163.048c-1.372-3.614-3.283-6.689-5.72-9.25-2.365-2.498-5.17-4.446-8.416-5.83s-6.689-2.07-10.352-2.07-6.909.673-10.143 2.033a25.1 25.1 0 0 0-8.501 5.868c-2.463 2.584-4.398 5.635-5.795 9.175-1.396 3.54-2.107 7.558-2.107 12.066 0 4.116.662 7.987 1.997 11.601 1.348 3.614 3.185 6.676 5.513 9.212 2.327 2.585 5.132 4.606 8.391 6.052 3.258 1.445 6.811 2.168 10.645 2.168 3.602 0 7.007-.674 10.192-2.034a25.2 25.2 0 0 0 8.416-5.794c2.487-2.524 4.435-5.598 5.831-9.188 1.397-3.601 2.107-7.607 2.107-12.005 0-4.397-.698-8.379-2.058-11.992zm-8.33 22.062c-.662 3.001-1.715 5.684-3.173 8.073-1.408 2.352-3.234 4.177-5.463 5.488s-4.729 1.96-7.522 1.96c-2.964 0-5.5-.65-7.632-1.936-2.131-1.298-3.895-3.087-5.292-5.39-1.457-2.352-2.523-5.035-3.209-8.073-.674-3.038-1.005-6.43-1.005-10.192 0-3.393.307-6.64.956-9.714.637-3.087 1.605-5.77 2.903-8.073 1.384-2.4 3.16-4.324 5.329-5.757 2.18-1.433 4.839-2.156 7.95-2.156 2.78 0 5.243.612 7.4 1.862 2.155 1.237 3.944 2.964 5.377 5.182 1.433 2.241 2.511 4.96 3.258 8.146.748 3.197 1.103 6.688 1.103 10.51s-.319 7.069-.992 10.07z" clip-rule="evenodd"/>
    <path fill="#232323" d="M509.878 150.05c-.723.025-1.788.184-3.185.466-1.396.294-2.523.723-3.418 1.298-.882.6-1.482 1.838-1.825 3.712q-.514 2.811-.514 6.872v24.108c0 3.075-.625 5.745-1.9 8.012a17 17 0 0 1-5.022 5.598c-2.045 1.409-4.201 2.413-6.48 3.026-2.266.612-4.434.919-6.517.919-3.32 0-6.272-.441-8.869-1.311-2.585-.87-4.765-2.058-6.53-3.54-1.739-1.483-3.05-3.186-3.931-5.097-.87-1.923-1.323-3.92-1.323-6.002v-32.793c0-.919-.147-1.679-.454-2.279-.306-.612-.906-1.176-1.837-1.703-.65-.367-1.507-.661-2.524-.882-1.029-.22-1.861-.367-2.523-.416v-2.805h22.969v2.805c-.735.024-1.63.147-2.732.355-1.09.208-1.899.404-2.413.588-.87.319-1.458.833-1.752 1.568a6.3 6.3 0 0 0-.441 2.377v30.625c0 1.482.147 3.05.49 4.68.318 1.616.968 3.135 1.935 4.544 1.017 1.433 2.401 2.597 4.153 3.516 1.74.906 4.14 1.36 7.191 1.36 2.866 0 5.28-.454 7.215-1.36 1.948-.919 3.491-2.107 4.606-3.602 1.078-1.408 1.838-2.879 2.266-4.41.454-1.543.662-3.087.662-4.655v-22.736q0-4.336-.625-7.092c-.404-1.838-1.029-3.05-1.837-3.614-.907-.65-2.156-1.164-3.737-1.531-1.58-.356-2.78-.576-3.601-.625v-2.805h22.466v2.805zm59.707.625q2.26-.588 3.344-.625v-2.805h-22.405v2.805c.857.05 2.106.319 3.76.784 1.642.466 2.83.956 3.553 1.446.784.575 1.372 1.715 1.788 3.442.405 1.727.613 4.202.613 7.436v26.325l-31.054-42.226h-15.753v2.805c.992.05 2.278.392 3.87.993 1.605.612 2.855 1.347 3.798 2.205.71.649 1.274 1.568 1.678 2.768.405 1.2.625 2.389.625 3.59v27.292c0 3.614-.184 6.174-.514 7.669-.331 1.495-.956 2.61-1.862 3.332-.43.367-1.446.772-3.1 1.225-1.666.453-2.842.71-3.54.76v2.805h22.65v-2.793c-.6-.037-1.85-.294-3.724-.784s-3.111-1.03-3.7-1.605c-.844-.723-1.457-1.948-1.861-3.663-.405-1.715-.6-4.177-.6-7.387V157.89l33.466 45.387h3.345V162.68c0-2.842.171-5.182.49-7.032s.967-3.099 1.886-3.748c.65-.416 1.715-.82 3.222-1.213z"/>
    <path fill="#232323" fill-rule="evenodd" d="M630.344 175.31c0 4.716-.881 8.808-2.658 12.262-1.751 3.467-4.054 6.297-6.872 8.526-2.854 2.217-6.064 3.871-9.616 4.961-3.553 1.103-7.215 1.642-11 1.642h-22.871v-2.806c.76 0 1.727-.06 2.952-.208 1.2-.147 1.997-.306 2.4-.49.785-.33 1.348-.833 1.691-1.494.356-.662.527-1.47.527-2.401V155.33c0-.882-.135-1.678-.453-2.377-.306-.698-.894-1.261-1.8-1.678a10.8 10.8 0 0 0-2.647-.857c-.943-.184-1.752-.307-2.45-.355v-2.806h24.145c3.32 0 6.603.515 9.824 1.544s6.015 2.413 8.416 4.165c3.247 2.315 5.782 5.353 7.632 9.101s2.756 8.171 2.768 13.255zm-9.567-.025c0-3.724-.502-7.093-1.47-10.094-.992-3.001-2.425-5.635-4.312-7.876q-2.682-3.198-6.578-5.035-3.895-1.838-8.673-1.838c-1.066 0-2.254.025-3.59.062a273 273 0 0 0-2.964.098v42.605c0 2.364.686 4.018 2.058 4.924 1.372.92 3.48 1.36 6.321 1.36 3.283 0 6.15-.588 8.612-1.752 2.45-1.176 4.447-2.793 5.978-4.875 1.605-2.193 2.768-4.716 3.503-7.595.748-2.879 1.115-6.21 1.115-9.972zm44.994 27.415h22.957v-2.792c-.65-.037-1.458-.172-2.426-.417-.967-.257-1.727-.551-2.34-.918q-1.322-.9-2.057-1.838c-.49-.625-.944-1.445-1.323-2.462l-18.412-47.824h-3.111l-2.549 6.602c-1.96 5.072-4.091 10.597-6.406 16.575a2086 2086 0 0 1-9.188 23.446c-.551 1.36-1.102 2.414-1.678 3.185-.576.772-1.372 1.507-2.413 2.205q-.974.625-2.5.993c-1.004.245-1.849.392-2.523.44v2.806h20.825v-2.793c-2.058-.11-3.895-.453-5.524-1.017q-2.463-.863-2.463-2.426c0-.44.074-1.004.209-1.714.122-.699.355-1.605.698-2.732.367-1.152.784-2.401 1.237-3.749.466-1.347 1.054-2.94 1.764-4.765h19.392l4.581 12.41c.098.269.184.563.233.906s.074.624.074.857c0 .576-.662 1.054-1.997 1.446-1.348.392-3.026.649-5.035.784v2.805zm-7.619-44.185 8.38 21.535h-16.636z" clip-rule="evenodd"/>
    <path fill="#232323" d="M735.67 162.3h-2.707c-.245-.943-.662-2.058-1.274-3.344s-1.299-2.499-2.046-3.65a18.3 18.3 0 0 0-2.548-3.149c-.907-.894-1.813-1.408-2.67-1.543a38 38 0 0 0-3.038-.233 85 85 0 0 0-3.382-.073h-2.254v44.332c0 .858.184 1.654.54 2.365.355.722 1.004 1.274 1.898 1.665.478.184 1.446.43 2.94.748 1.483.306 2.646.477 3.48.514v2.793H698.54v-2.805c.735-.049 1.838-.16 3.332-.306 1.482-.16 2.524-.356 3.1-.588.857-.343 1.482-.833 1.886-1.47s.6-1.495.6-2.56v-44.689h-2.254c-.808 0-1.813.025-3.001.062a42 42 0 0 0-3.43.245c-.858.11-1.74.612-2.67 1.543a20.4 20.4 0 0 0-2.549 3.148 27 27 0 0 0-2.07 3.737c-.6 1.323-1.017 2.4-1.25 3.27h-2.719v-15.055h48.155v15.055zm6.174 40.4h24.867v-2.792c-.857-.037-1.898-.172-3.123-.417-1.237-.257-2.12-.478-2.67-.686-.907-.392-1.556-.918-1.924-1.58-.38-.662-.564-1.421-.564-2.29V154.84c0-.857.172-1.63.503-2.34.33-.71 1.004-1.212 1.984-1.531.833-.27 1.813-.478 2.928-.65q1.672-.256 2.866-.293v-2.805h-24.867v2.805c.747.049 1.715.22 2.903.49 1.176.281 2.156.563 2.94.882q1.599.624 2.022 1.543c.281.613.428 1.372.428 2.279v40.13c0 1.042-.196 1.85-.575 2.438-.392.588-1.017 1.054-1.875 1.385-.551.208-1.482.367-2.805.465s-2.327.184-3.026.233v2.805z"/>
    <path fill="#232323" fill-rule="evenodd" d="M815.81 153.787c2.437 2.56 4.348 5.635 5.72 9.248 1.372 3.614 2.07 7.608 2.07 11.993s-.71 8.416-2.106 12.005c-1.41 3.601-3.345 6.664-5.844 9.187a25.4 25.4 0 0 1-8.403 5.795c-3.197 1.36-6.59 2.033-10.192 2.033q-5.77 0-10.658-2.168a24.9 24.9 0 0 1-8.391-6.051c-2.327-2.536-4.165-5.599-5.5-9.212-1.335-3.614-2.01-7.485-2.01-11.601 0-4.508.711-8.538 2.108-12.066 1.409-3.528 3.332-6.591 5.806-9.176 2.438-2.56 5.268-4.508 8.502-5.867s6.603-2.034 10.143-2.034 7.105.686 10.351 2.07a25 25 0 0 1 8.416 5.831zm-5.795 39.396c1.446-2.377 2.511-5.072 3.185-8.073.662-3.001.992-6.37.992-10.07s-.367-7.313-1.114-10.51c-.735-3.185-1.825-5.905-3.247-8.146-1.42-2.218-3.221-3.957-5.377-5.182-2.156-1.237-4.63-1.862-7.4-1.862-3.11 0-5.77.71-7.95 2.156-2.18 1.433-3.969 3.356-5.34 5.757-1.299 2.303-2.267 4.986-2.916 8.073-.625 3.087-.943 6.321-.943 9.714 0 3.761.33 7.154 1.017 10.192.685 3.026 1.739 5.721 3.197 8.073 1.408 2.303 3.173 4.092 5.292 5.39 2.131 1.299 4.68 1.935 7.644 1.935 2.768 0 5.28-.649 7.521-1.96 2.23-1.31 4.055-3.135 5.451-5.488z" clip-rule="evenodd"/>
    <path fill="#232323" d="M883.87 150.675c1.507-.392 2.622-.6 3.333-.625v-2.805h-22.394v2.805c.846.05 2.107.319 3.749.784 1.654.466 2.83.956 3.565 1.446.771.575 1.372 1.715 1.776 3.442.429 1.727.625 4.202.625 7.436v26.325l-31.042-42.226H827.73v2.805c.992.05 2.278.392 3.87.993 1.593.612 2.867 1.347 3.798 2.205.698.649 1.262 1.568 1.666 2.768.429 1.2.625 2.389.625 3.59v27.292c0 3.614-.172 6.174-.502 7.669-.343 1.495-.968 2.61-1.875 3.332-.416.367-1.445.772-3.099 1.225s-2.83.71-3.528.76v2.805h22.638v-2.793c-.6-.037-1.837-.294-3.712-.784-1.886-.49-3.111-1.03-3.724-1.605-.833-.723-1.445-1.948-1.862-3.663-.392-1.715-.6-4.177-.6-7.387V157.89l33.467 45.387h3.356V162.68c0-2.842.172-5.182.49-7.032.32-1.85.956-3.099 1.887-3.748.637-.416 1.715-.82 3.222-1.213z"/>
    <path fill="#232323" fill-rule="evenodd" d="m499.661 122.978-.134-.025-.22-.037c-.625-.11-1.14-.269-1.556-.477a10.3 10.3 0 0 1-1.691-1.115c-.564-.453-1.188-1.164-1.899-2.12-1.604-2.18-2.964-4.017-4.067-5.536a584 584 0 0 0-4.177-5.61 19 19 0 0 0 3.332-1.287 10.3 10.3 0 0 0 2.573-1.789 7.2 7.2 0 0 0 1.776-2.609c.392-1.017.6-2.168.6-3.479 0-1.458-.294-2.707-.882-3.736a7.25 7.25 0 0 0-2.364-2.511c-1.03-.65-2.156-1.127-3.418-1.421s-2.597-.441-4.042-.441H467.86V92.5c.44.036.98.098 1.617.22q.937.184 1.543.404c.576.22.943.552 1.115.98.159.43.233.931.233 1.483v24.585c0 .625-.098 1.127-.319 1.532-.22.404-.551.71-1.029.918-.282.123-.796.233-1.519.307-.723.085-1.262.147-1.641.171v1.715h14.283V123.1c-.49-.012-1.09-.073-1.813-.171-.723-.086-1.213-.196-1.494-.307-.576-.22-.956-.55-1.127-.967q-.258-.643-.258-1.47v-10.78h3.467a178 178 0 0 1 5.304 7.166 207 207 0 0 1 5.476 8.256h7.95v-1.85zm-19.073-15.644h-3.123v-14.59h4.054c2.156 0 3.822.601 4.986 1.814 1.176 1.2 1.776 2.842 1.776 4.9 0 2.425-.735 4.348-2.192 5.757-1.458 1.421-3.296 2.12-5.488 2.12zm54.096 15.521c-.575-.159-1.065-.343-1.42-.563-.552-.368-.98-.747-1.275-1.127-.306-.392-.575-.894-.82-1.507l-11.295-29.363h-1.91a3879 3879 0 0 0-5.501 14.222 1215 1215 0 0 1-5.647 14.394c-.331.833-.662 1.482-1.03 1.96-.342.465-.845.919-1.47 1.36-.404.257-.906.453-1.543.612-.073.012-.122.025-.196.037v1.948h11.43v-1.715c-1.262-.062-2.39-.27-3.394-.625s-1.507-.845-1.507-1.495c0-.27.037-.624.11-1.053.086-.441.233-.992.442-1.678.22-.699.477-1.47.76-2.303.28-.833.636-1.801 1.09-2.928h11.906l2.806 7.632c.06.159.098.343.134.55.025.209.037.393.037.528 0 .355-.404.649-1.237.894-.82.233-1.85.404-3.087.478v1.714h14.1v-1.714c-.392-.013-.895-.099-1.483-.258m-22.356-11.931 5.072-13.23 5.145 13.23z" clip-rule="evenodd"/>
    <path fill="#232323" d="M348.448 147.245v2.78c.698.05 1.641.209 2.817.466 1.2.258 2.156.564 2.854.894.907.417 1.507.968 1.801 1.642.282.65.429 1.409.429 2.266v40.021q0 1.415-.552 2.426c-.33.649-.894 1.151-1.678 1.482-.392.184-1.237.343-2.536.465-1.298.098-2.34.184-3.123.233v2.769h24.034v-2.769c-.674-.024-1.666-.171-2.964-.429-1.299-.257-2.156-.478-2.536-.661-.858-.417-1.458-.968-1.8-1.642-.344-.673-.503-1.445-.503-2.303v-19.11h3.687c5.219 0 6.444.637 7.228 1.299.514.44 1.004 1.176 1.445 2.168.466 1.004.772 1.8.82 2.144h2.978v-14.394h-2.977a8.3 8.3 0 0 1-.858 2.683c-.416.82-.882 1.433-1.408 1.825-.76.576-2.01 1.102-7.228 1.102h-3.687v-22.16h14.81c5.219 0 6.444.637 7.228 1.299.514.44 1.004 1.176 1.445 2.168.466 1.004.82 2.131.82 2.131h2.978v-8.807h-43.5z"/>
</svg>
