<?xml version="1.0" encoding="UTF-8"?><svg id="IxDF_Logo_-" xmlns="http://www.w3.org/2000/svg" viewBox="0 0 953.8 483.3"><defs><style>.cls-1,.cls-2{fill:#232323;stroke-width:0px;}.cls-2{fill-rule:evenodd;}</style></defs><path class="cls-1" d="M240.53,138.35c-.29-1-.7-2.09-2.06-2.08-1.21,0-1.74.89-1.74,1.73,0,1.15.76,1.68,2,2.32l.05.03c1.22.62,2.67,1.36,2.68,3.09,0,1.65-1.39,2.97-3.48,2.98-.64,0-1.15-.12-1.54-.23-.39-.14-.63-.25-.77-.33-.13-.33-.34-1.68-.43-2.43l.45-.11c.26.96.97,2.54,2.58,2.54,1.18,0,1.88-.74,1.88-1.89,0-1.16-.87-1.71-2.05-2.33l-.09-.05c-1.01-.53-2.5-1.32-2.51-3.04,0-1.51,1.2-2.8,3.23-2.81.72,0,1.38.17,1.98.35.06.51.13,1.05.24,1.87l.04.3-.46.1Z"/><path class="cls-1" d="M232.39,146.4c.08-.5.23-2,.26-2.53h-.48c-.13.64-.36,1.2-.59,1.55-.3.45-.72.62-1.9.76-.78.09-1.33.14-1.65-.01-.3-.17-.44-.49-.52-1.22l-.34-2.95,1.48-.17c1.36-.16,1.48-.08,1.81,1.02l.45-.05-.35-3-.45.05c-.08,1.07-.14,1.2-1.55,1.37l-1.47.17-.41-3.54c-.06-.47-.03-.5.46-.56l1.18-.14c1.12-.13,1.56-.07,1.81.23.24.32.44.65.65,1.28l.44-.13c-.04-.23-.09-.49-.13-.75-.11-.61-.22-1.21-.25-1.48l-6.96.81.05.44c1.23-.03,1.36,0,1.52,1.4l.72,6.21c.15,1.26.04,1.4-1.37,1.68l.05.44,7.52-.87Z"/><path class="cls-2" d="M214.64,139.03c1.94-.46,3.47-.41,4.63.26.92.55,1.72,1.54,2.07,2.98.44,1.83.06,3.36-.9,4.53-.93,1.16-2.35,1.9-4.23,2.35l-3.62.87-.1-.41c1.29-.41,1.39-.53,1.08-1.83l-1.47-6.12c-.31-1.31-.45-1.34-1.65-1.16l-.11-.44,4.29-1.03ZM214.86,147.36c.28,1.16.85,1.33,1.97,1.06,2.86-.68,3.66-3.14,3.07-5.58-.38-1.57-1.28-2.79-2.68-3.22-.79-.28-1.72-.25-2.75,0-.64.15-1.02.33-1.15.47-.13.14-.13.32,0,.92l1.52,6.35Z"/><path class="cls-1" d="M200.98,144.8c-.23-.66.03-1,.81-1.4l-.18-.4-3.38,1.52.18.4c1.01-.39,1.44-.36,1.8.25.22.38.58,1.01,1.17,2.33l1.59,3.52-.04.02-9.21-4.49-2.12.96.18.4c.7-.25,1.06-.27,1.51-.05.41.23.47.27.94,1.32l1.42,3.15c.59,1.32.86,2.02,1.02,2.49.24.73-.03,1.08-.84,1.5l.18.4,3.39-1.53-.18-.4c-1,.38-1.41.36-1.81-.34-.23-.4-.58-1.06-1.18-2.38l-1.62-3.59h.03s9.48,4.74,9.48,4.74l.44-.2-2.6-5.77c-.6-1.33-.86-1.99-1-2.44Z"/><path class="cls-2" d="M191.19,153.4c1.79,2.88.88,5.89-1.56,7.41-2.41,1.5-5.5.82-7.1-1.73-1.5-2.4-1.21-5.67,1.59-7.41,2.26-1.41,5.4-.93,7.06,1.74ZM183.67,157.85c1.56,2.5,4.07,3.47,5.95,2.3,1.48-.92,2.04-2.99.44-5.55-1.75-2.81-4.15-3.39-5.89-2.3-1.49.93-2.05,3.06-.5,5.55Z"/><path class="cls-1" d="M179.75,167.01l.27.35,3.29-2.55-.27-.35c-1.08.71-1.22.73-2.05-.34l-3.85-4.97c-.82-1.05-.78-1.21.19-2.07l-.27-.35-3.29,2.55.27.35c1.08-.71,1.23-.72,2.05.34l3.85,4.97c.82,1.06.78,1.21-.18,2.07Z"/><path class="cls-1" d="M172.52,163.42c-.64-.43-1.01-.62-1.32-.68-.44-.1-.71,0-1.57.8l-.81.76,5.28,5.65c.85.91,1.05.94,2.2-.01l.3.32-3.3,3.08-.3-.32c.98-1.04.96-1.25.12-2.15l-5.28-5.65-.71.66c-.95.89-1.1,1.2-1,1.6.04.32.25.73.59,1.37l-.33.31c-.59-.74-1.23-1.54-1.79-2.2l.23-.21c.41.11.58,0,.9-.3l4.53-4.24c.31-.29.34-.44.32-.83l.24-.23c.49.53,1.33,1.31,2.01,1.92l-.3.35Z"/><path class="cls-1" d="M169.52,176.89c-.21-.55-.85-1.6-1.26-2.23l-.43.24c.69,1.61.81,2.82-.23,4.04-1.54,1.82-4.19,1.85-6.44-.05-1.82-1.54-2.61-4.04-.92-6.04,1.09-1.3,2.22-1.58,3.75-.82l.22-.43c-.59-.4-1.07-.7-1.66-1.06l-.36-.23c-.08.07-.19.15-.32.24-.45.33-1.16.86-1.8,1.61-2.26,2.68-2.23,6.03.29,8.16,1.91,1.61,5.08,2.05,7.6-.94.73-.86,1.34-2.08,1.54-2.48Z"/><path class="cls-2" d="M160.96,188.14l-.37-.24c.44-.9.41-1.08-.21-1.25-.47-.13-1.09-.27-1.79-.44l-.71-.17-1.84,2.8.06.08c.43.57.83,1.1,1.25,1.61.64.83.85.8,1.59-.12l.37.24-1.87,2.85-.37-.24c.43-.9.47-1.14-.39-2.36l-5.11-7.25.15-.48c.97.23,1.97.48,2.99.72h0c1.91.46,3.85.94,5.7,1.37,1.4.32,1.64.23,2.27-.57l.37.24-2.11,3.22ZM153.1,184.81l-.02.03c.8,1.09,1.61,2.19,2.38,3.23l.15.21,1.59-2.42-4.11-1.04Z"/><path class="cls-2" d="M156.54,195.38c.1-.16.18-.32.26-.49l-.34-.24c-.24.27-.55.52-1.16.69-.53.16-1.05.27-2.03.42-.84.11-2.08.23-2.66.24.06-1.27-.31-2.38-1.52-2.98-.84-.42-1.66-.37-2.31.02-.62.36-1.08.99-1.59,2.02l-1.73,3.49.39.2c.64-1.05.74-1.14,1.94-.55l5.66,2.8c1.2.59,1.22.76.73,1.96l.4.2,1.83-3.7-.39-.2c-.64,1.09-.79,1.17-1.99.58l-2.24-1.11.22-.45c.36-.73.65-.89,1.16-.93.19-.02.39-.03.6-.05h0s0,0,0,0c.77-.06,1.62-.14,2.35-.25,1.23-.18,1.83-.62,2.41-1.65ZM150.02,196.08c.11.49,0,1.01-.37,1.73l-.33.68-3.46-1.72c-.38-.19-.52-.33-.54-.46-.03-.15.03-.42.24-.83.53-1.07,1.59-1.79,3.11-1.04.76.38,1.21.88,1.36,1.64Z"/><path class="cls-1" d="M149.38,204.36c.46.26,1.74,1.06,2.15,1.36l-2.58,7.12-.41-.15c.38-1.38.31-1.54-.89-1.98l-5.88-2.13c-1.33-.48-1.42-.38-1.94.74l-.41-.15,2.39-6.59c.26.09.84.26,1.43.44.25.07.51.15.74.22l-.08.45c-.67-.09-1.05-.06-1.44.01-.39.09-.63.46-1.02,1.52l-.41,1.12c-.17.46-.15.5.3.66l3.35,1.21.5-1.39c.48-1.33.39-1.45-.53-2l.16-.43,2.84,1.03-.16.43c-1.13-.19-1.26-.12-1.72,1.16l-.51,1.4,2.79,1.01c.69.25,1.04.28,1.32.08.28-.22.48-.73.75-1.47.41-1.12.44-1.58.17-2.04-.2-.36-.61-.82-1.13-1.23l.22-.42Z"/><path class="cls-1" d="M139.16,213.67c.29-.13.7-.17,1.48-.16l.06-.45c-.9-.14-2.04-.33-2.74-.5l-.08.32c.23.31.29.46.2.87l-1.45,6.03c-.1.43-.18.62-.58.75l-.07.31c.83.23,1.81.55,2.7.84l.11-.44c-.63-.34-1.03-.57-1.24-.81-.3-.28-.35-.62-.05-1.89l.23-.95,7.52,1.8c1.21.29,1.33.45,1.09,1.86l.43.1,1.05-4.38-.43-.1c-.44,1.43-.62,1.51-1.83,1.23l-7.51-1.8.26-1.08c.28-1.15.44-1.38.87-1.54Z"/><path class="cls-1" d="M136.11,224.44c-.05.88.11,1.28.79,1.42.46.11,1.16.22,2.61.38l6.29.69-.05.48-8.92,5.75v.03s3.92.43,3.92.43c1.44.16,2.19.19,2.65.2.81.01,1.03-.33,1.21-1.38l.44.05-.41,3.7-.44-.05c.05-.91-.11-1.32-.86-1.49-.48-.1-1.22-.23-2.66-.39l-3.44-.38c-1.14-.13-1.21-.1-1.61.14-.43.27-.59.6-.73,1.33l-.44-.05.26-2.31,8.56-5.65v-.05s-3.84-.42-3.84-.42c-1.44-.16-2.16-.18-2.6-.18-.71,0-.96.35-1.14,1.42l-.44-.05.41-3.68.44.05Z"/><path class="cls-1" d="M144.19,242.82h.44s.03-4.16.03-4.16h-.44c-.1,1.28-.18,1.41-1.53,1.4l-6.28-.05c-1.34-.01-1.43-.14-1.51-1.43h-.44s-.03,4.16-.03,4.16h.44c.1-1.29.2-1.41,1.53-1.4l6.28.05c1.34.01,1.43.14,1.51,1.43Z"/><path class="cls-2" d="M300.42,305.83h-120.87c-.51,0-.93-.42-.93-.93h0c0-.51.42-.93.93-.93h45.54c2.3-1.23,4-2.52,4.26-3.82.72-3.6,2.16-11.5,0-19.05-2.16-5.65-7.59-9.53-13.85-12.19-1.86.27-4.1,1.04-5.91,2.9,1.59,1.35,2.73,2.05,2.87,2.13,0,0-6.52,4.6-8.03,8.48-.95-1.23-4.68-4.96-6.16-5.48.69-1.46,4.19-6.7,8.14-8.37.39.62,1.03,1.32,1.74,1.99,1.14-1.07,2.64-2.12,4.55-2.74-6.68-2.4-13.85-3.58-18.88-4.16-.13,1.74-.12,3.69.03,6.21-10.14-1.68-20.6,2.67-20.6,2.67-.1-.52-2.1-10.87.25-16.8,4.37-1.62,15.75.2,21.53,1.44-.47,1.62-.8,3.05-1.01,4.56,4.93-.76,9.43-.88,13.5-.58-1.53-2.13-4.29-4.98-9.08-7.16-4.62-2.11-8.02-4.84-10.2-6.94-2.09.88-4.06,1.95-5.25,2.83-1.01-6.18-4.42-14.91-8.67-18.59,0,0,10.69-2.57,15.13-5.92.05.34.09.7.14,1.07h0c.71,5.34,1.94,14.52,5.07,18.86-1.57.03-3.28.47-5.37,1.31,2.85,2.43,6.35,4.59,11.55,5.96-.26-1.18-.51-2.97-.22-5.26-.82,0-1.21.08-2.08.23-.28-2.54-.57-7.51.32-9.31,2.65-.75,7.01.56,7.23.63,0,0-2.33,4.3-2.05,8.73-1.14-.18-1.19-.17-1.98-.19-.14,2.56.09,4.15.78,5.64,6.25,1.99,9.16,5.93,11.01,8.91,3.59.67,6.27,1.45,9.01,2.43-.05-1.18-.17-3.14-1.03-4.76-.7.19-1.24.44-2.05.83-.77-4.37-4.04-8.01-4.04-8.01.23-.13,4.14-2.41,6.88-2.31,1.29,1.55,2.17,6.45,2.49,8.98-.97.06-1.07,0-1.96.23,1.03,2.13,1.33,3.93,1.52,5.71,1.94.74,3.65,1.47,5.12,2.1l.6.26c1.33-10.47-3.81-19.02-7.34-23.51-2.4,1.79-4.69,3.71-5.66,4.7-1.89-7.3-12.67-16.92-12.67-16.92.43-.21,9.11-4.74,11.99-8.41,6.75,3.82,11.94,13.98,12.91,16.75-1.18.27-3.19,1.48-5.27,2.95,1.57,1.16,3.46,2.81,5.48,5.13.94,1.07,1.77,2.31,2.54,3.67,1.02-.9,2.4-2.33,3.4-4.19-1.46-.51-2.84-.93-3.54-1.07,3.06-3.35,4.38-11.96,4.38-11.96.25.15,5.39,3.04,8.19,3.29.29,4.66-3.13,10.63-4.22,12.02-.55-.54-1.96-1.2-3.49-1.8-.57,1.9-1.68,4-3.48,6.08,1.7,3.6,3.05,7.76,4.36,11.82.36,1.1.71,2.19,1.07,3.26,12.97-10.81,9.23-30.89,6.55-40.21-1.77,1.16-3.61,2.61-5.94,4.7-5.57-10.04-16.63-16.16-16.63-16.16.38-.45,8.05-9.38,14.86-11.45,4.46,2.7,10.76,13.92,13.69,19.84-1.79.73-3.31,1.46-4.81,2.35,3.16,4.45,5.39,10.02,6.66,15.78,1.7-1.64,3.73-3.15,5.66-4.43-.71-.57-1.35-1.02-1.79-1.17.7-1.46,4.2-6.7,8.15-8.37,1.35,2.19,5.82,5.24,6.04,5.37,0,0-6.52,4.6-8.02,8.48-.52-.66-1.85-2.05-3.19-3.28-2.99,3.64-4.87,8.36-5.76,11.01.34,4.79,0,9.39-1.09,13.23,3.02-1.88,7.18-3.05,11.77-3.68.48-4.4,4.15-7.76,7.3-9.85-1.27-1.55-2.58-2.79-4.22-4.17,4.1-4.26,12.5-12.15,17.04-13.25,5.26,3.6,9.41,13.29,9.61,13.79,0,0-11.1,2.25-18.56,9.32-1.13-1.91-2.11-3.4-3.07-4.67-2.83,3.43-3.7,6.88-3.95,8.41,5.51-.39,11.33-.14,16.43.49.46-2.55.72-4.93.46-6.13,2.92-.31,14.32.12,20.63,4.62-2.11,4.16-2.55,13.94-2.56,14.42,0,0-13.28-5.71-20.68-4.34.47-1.25,1.21-3.97,1.8-6.79-10.48-.19-17.07,1.26-22.29,3.93,3.49.31,5.77.78,7.24,1.24.51-1.1.88-2.11.91-2.7,1.6.26,7.61,2.16,10.31,5.48-1.73,1.91-3.4,7.05-3.47,7.31,0,0-6.24-4.98-10.38-5.34.5-.7,1.16-1.64,1.97-3.31-2.5-.67-6.14-1.19-9.5-.65-1.93,1.24-3.54,2.2-5.34,3.78-2.2,1.92-3.85,4.47-4.98,7.28.85,1.25,1.39,3.04,1.39,5.05,0,3.25-1.39,5.95-3.26,6.64.25,4.5,1.62,8.54,4,10.88.48.43,1.06.87,1.75,1.28h46.64c.51,0,.93.42.93.93h0c0,.51-.42.93-.93.93ZM248.59,284.44c.17-1.9-.5-3.52-1.5-3.6-1-.09-1.95,1.38-2.12,3.28-.16,1.9.51,3.51,1.5,3.6,1,.09,1.94-1.38,2.12-3.28Z"/><path class="cls-1" d="M243.86,145.78l-.03.44,4.16.26.03-.44c-1.28-.17-1.4-.26-1.32-1.61l.39-6.27c.08-1.33.21-1.42,1.51-1.44l.03-.44-4.16-.25-.03.44c1.28.17,1.4.28,1.32,1.61l-.38,6.27c-.08,1.33-.21,1.42-1.51,1.44Z"/><path class="cls-1" d="M261.13,143.97c-.95-.01-1.03.06-1.18.97l-.21,1.32c-.09.54-.15,1.04-.13,1.47l-.27.02c-.96.08-2.16.17-3.3,0-3.41-.55-5.35-3.04-4.85-6.11.58-3.6,3.75-4.88,6.79-4.39,1.09.18,2.07.59,2.64.82.1.04.19.08.26.11-.04.55-.1,1.42-.14,2.46l-.45.02c-.07-1.95-1.16-2.65-2.63-2.89-2.37-.38-4.39,1.07-4.85,3.94-.36,2.23.54,5.05,3.53,5.53.53.09,1.03.05,1.4-.06.34-.12.55-.28.66-.93l.21-1.32c.18-1.12.09-1.23-1.41-1.6l.07-.42,3.94.64-.07.42Z"/><path class="cls-1" d="M274.14,142.97c.26-.64.68-.73,1.54-.52l.13-.42-3.55-1.07-.13.42c1.02.37,1.32.68,1.19,1.38-.08.43-.23,1.14-.65,2.53l-1.12,3.7h-.05s-3.99-9.46-3.99-9.46l-2.23-.67-.13.42c.69.27.98.49,1.17.96.16.44.17.51-.16,1.61l-1,3.31c-.42,1.38-.68,2.09-.87,2.54-.3.71-.73.8-1.62.58l-.13.42,3.56,1.08.13-.42c-1-.37-1.29-.65-1.14-1.44.09-.45.26-1.18.68-2.57l1.14-3.77h.03s4.02,9.82,4.02,9.82l.47.14,1.83-6.06c.42-1.4.66-2.07.85-2.5Z"/><path class="cls-2" d="M292.27,162.04c2.4,1.58,5.52,1.16,7.39-1.67,1.73-2.62.87-5.68-1.36-7.15-2.75-1.82-5.85-.72-7.41,1.64-1.66,2.52-.99,5.61,1.38,7.18ZM292.85,161.75c-1.85-1.22-2.01-3.91-.39-6.37,1.62-2.45,3.79-2.83,5.25-1.86,1.72,1.13,2.19,3.56.37,6.32-1.66,2.52-3.78,2.87-5.23,1.91Z"/><path class="cls-1" d="M313.12,165.79c-.75-.57-1.17-.64-1.65-.21-.31.29-.78.78-1.73,1.87l-.86.98c-1.22,1.4-2.31,2.22-3.62,2.34-1.04.09-2.05-.35-2.83-1.03-.69-.6-1.23-1.36-1.4-2.22-.24-1.16.21-2.34,1.41-3.73l2.58-2.96c.93-1.07.88-1.2.01-2.09l.29-.33,3.07,2.67-.29.33c-.99-.76-1.14-.77-2.07.3l-2.35,2.7c-1.66,1.91-1.85,3.66-.38,4.94,1.71,1.49,3.48.53,5.18-1.43l.78-.9c.95-1.09,1.35-1.62,1.62-2.03.33-.52.21-.88-.57-1.66l.29-.33,2.82,2.46-.29.33Z"/><path class="cls-1" d="M321.03,175.9c.56-.41.96-.26,1.58.37l.33-.29-2.45-2.78-.33.29c.67.85.76,1.27.28,1.8-.3.33-.8.85-1.89,1.8l-2.9,2.55-.03-.04,1.6-10.12-1.54-1.75-.33.29c.44.6.57.94.49,1.43-.1.46-.12.53-.98,1.28l-2.6,2.28c-1.09.95-1.68,1.42-2.08,1.7-.63.45-1.04.29-1.68-.36l-.33.29,2.46,2.8.33-.29c-.66-.84-.76-1.24-.21-1.83.31-.34.85-.87,1.93-1.82l2.96-2.6.02.02-1.76,10.46.32.37,4.76-4.18c1.1-.96,1.65-1.41,2.04-1.67Z"/><path class="cls-2" d="M327.59,182.58c1.1,1.66,1.58,3.12,1.35,4.44-.2,1.06-.85,2.15-2.08,2.97-1.57,1.04-3.14,1.21-4.56.71-1.41-.48-2.6-1.56-3.67-3.17l-2.06-3.1.35-.23c.83,1.07.97,1.13,2.09.39l5.25-3.48c1.13-.75,1.11-.89.52-1.95l.38-.25,2.44,3.68ZM319.85,185.65c-.99.66-.96,1.26-.32,2.21,1.62,2.45,4.21,2.36,6.3.97,1.35-.89,2.18-2.17,2.1-3.62-.01-.84-.36-1.7-.94-2.58-.36-.55-.65-.85-.83-.92-.18-.07-.35-.01-.86.33l-5.44,3.61Z"/><path class="cls-2" d="M326.39,200.05l-.39.2,1.72,3.45.39-.2c-.37-.96-.34-1.2.65-2.25,1.3-1.37,2.68-2.81,4.03-4.22.73-.76,1.46-1.52,2.15-2.25l-.34-.37-8.83.76c-1.48.12-1.66-.03-2.23-.85l-.39.2,1.52,3.05.39-.2c-.43-1.1-.35-1.3.69-1.43.65-.11,1.32-.19,2.03-.27h.09s1.49,2.98,1.49,2.98c-.18.19-.36.38-.54.56-.48.51-.91.95-1.25,1.29-.46.46-.63.39-1.19-.44ZM332.82,195.09v.03s-2.96,3.02-2.96,3.02l-1.29-2.59c1.36-.15,2.81-.31,4.25-.46Z"/><path class="cls-1" d="M338.25,209.83c.65-.42.97-.69,1.14-.95.27-.37.28-.65-.12-1.76l-.38-1.05-7.26,2.65c-1.17.43-1.27.6-.85,2.03l-.41.15-1.55-4.24.41-.15c.58,1.31.77,1.38,1.94.95l7.26-2.65-.33-.92c-.45-1.23-.68-1.48-1.08-1.54-.32-.09-.77-.05-1.49,0l-.16-.43c.91-.25,1.9-.53,2.72-.79l.11.3c-.26.33-.22.53-.07.95l2.13,5.83c.15.4.28.48.65.62l.11.31c-.68.25-1.73.72-2.56,1.1l-.2-.41Z"/><path class="cls-1" d="M332.12,215.06l-.43.11,1.06,4.03.43-.11c-.24-1.27-.19-1.41,1.11-1.75l6.08-1.6c1.29-.34,1.41-.24,1.83.98l.43-.11-1.06-4.03-.43.11c.24,1.27.18,1.42-1.11,1.76l-6.08,1.6c-1.29.34-1.42.24-1.83-.98Z"/><path class="cls-2" d="M340.18,230.96c-3.35.53-5.77-1.5-6.21-4.34-.44-2.81,1.4-5.39,4.38-5.85,2.79-.44,5.69,1.11,6.2,4.37.41,2.64-1.26,5.33-4.37,5.82ZM339.02,222.28c-2.92.46-4.79,2.39-4.45,4.58.27,1.72,1.96,3.05,4.94,2.58,3.27-.51,4.75-2.49,4.43-4.53-.27-1.74-2.01-3.09-4.91-2.63Z"/><path class="cls-1" d="M344.31,243.18c.69.04.91.41.99,1.29h.44s-.13-3.72-.13-3.72l-.44.02c-.02,1.09-.21,1.47-.92,1.57-.44.06-1.16.15-2.6.2l-3.86.14v-.05s7.64-6.83,7.64-6.83l-.08-2.32-.44.02c-.04.74-.15,1.09-.53,1.42-.37.3-.43.33-1.57.37l-3.45.12c-1.45.05-2.2.03-2.69,0-.77-.05-.99-.44-1.07-1.35l-.44.02.13,3.72.44-.02c.02-1.07.2-1.44,1-1.54.45-.06,1.21-.14,2.65-.19l3.94-.14v.03s-7.99,6.98-7.99,6.98l.02.49,6.33-.23c1.46-.05,2.17-.05,2.64,0Z"/><path class="cls-1" d="M176.04,222.74c-2.06-5.5-11.2-12.06-11.2-12.06.32-.2,6.66-4.42,8.59-7.5,5.55,2.41,10.4,9.85,11.37,11.91-2.11.72-7.39,5.93-8.76,7.65Z"/><path class="cls-1" d="M306.44,195.11s-5.99,4.49-8.43,10.83c-3.2-2.14-4.95-2.89-7.63-3.58,1.24-3.71,4.01-10.79,6.4-12.74,4.12.65,9.28,5.17,9.64,5.49h0Z"/><path class="cls-1" d="M238.39,191.96c2.51.26,8.21-1.12,10.01-2.04-.55,2.5,1.71,11.04,2.89,14.15-1.44-.52-6.6.83-10,2.04.48-6.41-2.9-14.15-2.9-14.15Z"/><path class="cls-1" d="M259.57,219.96c-.82,5-2.59,9.97-5.98,13.11,2.5-4.83,3.23-10.4,3.55-14.06-2-.69-4-1.15-5.47-1.13,2.98-4.47,3.88-13.71,4.4-19.06.04-.37.07-.72.1-1.06,4.57,3.19,15.34,5.37,15.34,5.37-4.12,3.83-7.22,12.67-8.01,18.89-.95-.65-2.35-1.4-3.93-2.07Z"/><path class="cls-1" d="M264.4,198.49c2.17-4.36,6.73-16.44,6.29-20.16,2.49,1.61,10.57,4.47,14.26,4.45,0,0-6.05,10.77-6.3,20.16-4.77-2.27-12.07-4.99-14.25-4.45Z"/><path class="cls-1" d="M292.65,227.08c5.9-3.78,13.34-11.17,15.22-17.18,0,0,7.39,9.83,12.81,12.91-.32.2-.67.4-1.04.62-5.15,3.1-14.04,8.45-17.1,13.6-1.54-3.37-6.88-8.23-9.89-9.95Z"/><path class="cls-1" d="M303.63,257.38c.6-2.51-2.57-10.87-5.21-16.33,10.79-.35,23.1-7.37,23.1-7.37.01,4.24,3.35,13.49,5.21,16.34-4.27-.48-18.12,4.84-23.1,7.37Z"/><path class="cls-1" d="M271.68,220.97c6.64-3.56,13.45-16.31,13.45-16.31.31.37,6.75,7.73,11.01,9.66-2.12,7.46-10.76,14.92-13.23,16.5-.48-.98-2.2-2.75-3.9-4.28-2.31,2.19-4.3,5.18-5.9,11.01-.37-4.95,1.6-9.37,4.26-12.37-2.41-2.04-4.43-3.47-5.68-4.22Z"/><path class="cls-1" d="M202.21,196.56s-5.94-8.59-11-10.59c1.62-1.24,6.55-6.06,7.25-8.01,1.9.93,8.73,5.57,10.86,10.75-2.9,1.74-6.92,7.56-7.1,7.85Z"/><path class="cls-1" d="M261.4,190.97c-4.77-.69-7.15-.6-10.55.07-.61-4.86-1.31-14.38.35-17.88,5.06-1.51,13.46.87,13.88,1,0,0-4.34,8.32-3.68,16.81Z"/><path class="cls-1" d="M208.18,221.96c-3.53.21-10.63,2.22-13.57,4.61-.45-6.11-6.13-15.02-9.43-20.2-.24-.38-.47-.73-.68-1.07,6.35-.34,17.58-5.97,17.58-5.97-1.01,6.35,2.42,16.49,6.09,22.63Z"/><path class="cls-1" d="M175.89,239.25c-1.36,1.79-1.8,9.56-1.62,14.85-8.71-3.53-21-2.28-21-2.28,1.49-3.38,2.1-11.93,1.62-14.85,3.24,1.89,16.14,2.54,21,2.28Z"/><path class="cls-1" d="M224.3,203.07c-4.03-9.62-13.41-16.25-13.41-16.25.39-.37,8.2-7.67,14.56-8.86,3.76,2.88,8.33,13.63,10.4,19.27-2.23.64-2.96.77-4.91,1.79.99,1.56,1.1,4.31.58,6.39-.4-2.02-2.2-4.36-3-5.03-1.24.73-2.62,1.56-4.2,2.69Z"/><path class="cls-1" d="M245.8,183.3c-4.24-.27-7.15-.03-12.83,1.47-.51-9.76-7.09-18.59-7.09-18.59.49-.2,10.32-4.15,16.7-3.18,2.56,3.74,3.2,14.68,3.22,20.3Z"/><path class="cls-1" d="M205.2,204.56s7.38-3.27,10.13-6.28c.04.13.08.26.13.39.04.12.08.25.12.38,1.23,3.76,3.33,10.22,6.17,12.94-2.38.48-6.28,3.18-7.83,4.85-1.55-4.33-5.18-10.18-8.73-12.27Z"/><path class="cls-2" d="M120,241.53c0-66.28,53.73-120,120-120s120,53.72,120,120-53.72,120-120,120c-66.27,0-120-53.72-120-120ZM123.3,241.53c0,64.45,52.25,116.7,116.7,116.7,64.45,0,116.7-52.25,116.7-116.7s-52.24-116.7-116.7-116.7-116.7,52.25-116.7,116.7Z"/><path class="cls-1" d="M255.81,329.34c0,1.7-.32,3.18-.96,4.43-.64,1.25-1.47,2.27-2.49,3.07-1.03.8-2.19,1.4-3.48,1.79-1.29.39-2.62.59-3.99.59h-8.29v-1c.27,0,.63-.02,1.06-.07.44-.06.73-.12.87-.18.28-.12.48-.3.61-.54.13-.24.2-.54.2-.87v-14.43c0-.32-.06-.61-.17-.86-.1-.25-.32-.45-.63-.6-.29-.14-.61-.25-.94-.31-.34-.07-.63-.11-.87-.13v-1h8.74c1.2,0,2.39.19,3.55.56,1.17.37,2.18.86,3.04,1.49,1.18.84,2.1,1.93,2.76,3.28.67,1.35,1,2.95,1,4.78ZM252.36,329.33c0-1.34-.18-2.56-.54-3.64-.36-1.09-.88-2.04-1.56-2.85-.65-.77-1.45-1.38-2.4-1.82-.94-.44-1.99-.66-3.14-.66-.38,0-.82,0-1.31.03-.48,0-.84.02-1.07.03v15.38c0,.86.25,1.45.75,1.78.5.33,1.26.49,2.3.49,1.19,0,2.24-.21,3.13-.63.89-.42,1.62-1.01,2.17-1.76.58-.79,1.01-1.7,1.27-2.73.27-1.04.41-2.25.41-3.61Z"/><path class="cls-1" d="M231.57,339.22h-6.37v-.93c.42-.05.78-.09,1.07-.14.3-.05.45-.17.45-.37,0-.08-.05-.22-.14-.39-.09-.18-.19-.34-.28-.49-.24-.37-.56-.86-.97-1.47-.4-.62-.9-1.36-1.49-2.21-.49.61-.94,1.21-1.35,1.79-.41.57-.85,1.18-1.3,1.83-.07.09-.14.21-.21.35-.07.14-.1.25-.1.34,0,.21.13.38.39.52.27.13.68.22,1.21.27v.9h-5.15v-.87c.64-.19,1.15-.41,1.54-.68.39-.27.76-.61,1.08-1,.29-.38.7-.89,1.21-1.55.53-.66,1.2-1.55,2.03-2.68-.48-.69-1.07-1.52-1.76-2.51-.69-1-1.25-1.82-1.71-2.48-.24-.36-.53-.64-.85-.86-.31-.22-.75-.34-1.33-.34v-.93h6.05v.93c-.3,0-.6.02-.89.06-.29.04-.44.12-.44.25,0,.08.03.18.08.28s.13.22.21.34c.21.32.53.81.96,1.48.44.67.92,1.37,1.42,2.11.33-.45.71-.98,1.14-1.58.44-.6.85-1.17,1.21-1.72.04-.06.08-.15.11-.24.04-.1.06-.2.06-.3,0-.2-.16-.35-.49-.47-.32-.12-.63-.21-.92-.25v-.9h5.13v.87c-.72.19-1.29.41-1.69.68-.4.25-.75.55-1.03.89-.31.38-.68.86-1.11,1.42-.42.56-1.02,1.35-1.79,2.37.86,1.2,1.55,2.19,2.09,2.96.54.77,1.08,1.56,1.62,2.38.27.41.57.74.9.99.34.23.8.37,1.38.41v.93Z"/><path class="cls-1" d="M213.31,339.22h-9.01v-1c.25-.02.62-.05,1.1-.08.48-.04.82-.09,1.01-.17.31-.12.54-.29.68-.49.14-.22.21-.51.21-.89v-14.49c0-.33-.05-.6-.16-.82-.1-.22-.35-.41-.73-.56-.28-.11-.64-.22-1.07-.31-.42-.1-.77-.16-1.04-.18v-1h9.01v1c-.29,0-.64.05-1.04.11-.4.06-.76.13-1.06.22-.36.11-.6.3-.72.55-.12.25-.18.54-.18.85v14.47c0,.31.07.59.2.83.14.23.38.42.7.56.2.07.52.16.96.25.45.08.83.13,1.14.14v1Z"/><path class="cls-1" d="M259.84,319.22v1c.25.02.59.08,1.02.17.43.09.78.2,1.03.32.33.15.54.35.65.59.1.23.16.51.16.82v14.43c0,.34-.07.63-.2.87-.12.23-.32.41-.6.54-.14.07-.45.12-.92.17-.47.04-.85.06-1.13.08v1h8.67v-1c-.24,0-.6-.06-1.07-.16-.47-.09-.78-.17-.92-.24-.31-.15-.53-.35-.65-.59-.12-.24-.18-.52-.18-.83v-6.89h1.33c1.88,0,2.32.23,2.61.47.19.16.36.42.52.78.17.36.28.65.3.77h1.07v-5.19h-1.07c-.05.34-.15.66-.31.97-.15.3-.32.52-.51.66-.27.21-.73.4-2.61.4h-1.33v-7.99h5.34c1.88,0,2.32.23,2.61.47.19.16.36.42.52.78.17.36.3.77.3.77h1.07v-3.18h-15.69Z"/><path class="cls-1" d="M162.12,305.86c-.28,0-.55-.12-.74-.35-12.54-15.4-20.23-33.95-22.22-53.66-.05-.52.33-.99.85-1.04.53-.05.99.33,1.04.85,1.95,19.34,9.49,37.55,21.8,52.65.33.41.27,1.01-.14,1.34-.18.14-.39.21-.6.21Z"/><path class="cls-1" d="M317.88,305.86c-.21,0-.42-.07-.6-.21-.41-.33-.47-.93-.14-1.34,12.31-15.11,19.85-33.31,21.8-52.65.05-.52.51-.9,1.04-.85.52.05.9.52.85,1.04-1.99,19.71-9.67,38.27-22.22,53.66-.19.23-.46.35-.74.35Z"/><path class="cls-1" d="M284.11,145.53l-.23.46c.11.07.25.17.42.31.18.14.31.27.4.38.12.14.17.28.16.42,0,.13-.05.27-.12.41l-3.3,6.58c-.08.15-.17.27-.29.35-.11.08-.24.11-.4.11-.08,0-.23-.05-.46-.13-.22-.09-.4-.16-.53-.22l-.23.46,3.95,1.98.23-.46c-.11-.06-.26-.17-.45-.32-.19-.15-.31-.26-.36-.32-.11-.14-.16-.28-.16-.42,0-.14.04-.28.11-.42l1.58-3.14.61.3c.86.43,1.01.64,1.08.81.05.12.07.28.06.48,0,.2-.02.36-.04.42l.49.25,1.19-2.37-.49-.25c-.1.15-.22.27-.36.37-.14.1-.26.16-.38.18-.17.03-.42.02-1.28-.41l-.61-.3,1.83-3.65,2.44,1.22c.86.43,1.01.64,1.08.81.05.12.07.28.06.48,0,.2-.04.42-.04.42l.49.25.73-1.45-7.16-3.59Z"/><path class="cls-2" d="M634.62,198.92c1.22,1.28,2.18,2.82,2.87,4.63.69,1.81,1.03,3.81,1.03,6.01s-.34,4.21-1.05,6.02c-.7,1.8-1.67,3.34-2.93,4.61-1.2,1.26-2.61,2.22-4.21,2.9-1.6.68-3.31,1.02-5.11,1.02-1.93,0-3.71-.36-5.34-1.09s-3.04-1.73-4.2-3.03c-1.17-1.27-2.09-2.81-2.76-4.62-.67-1.81-1.01-3.75-1.01-5.81,0-2.26.35-4.28,1.06-6.05.7-1.77,1.67-3.3,2.9-4.59,1.23-1.28,2.65-2.26,4.26-2.94,1.62-.68,3.32-1.02,5.09-1.02s3.56.35,5.18,1.04c1.63.69,3.04,1.67,4.22,2.92ZM631.72,218.65c.72-1.19,1.26-2.54,1.59-4.05.32-1.51.49-3.19.49-5.04s-.19-3.67-.55-5.26c-.37-1.6-.91-2.96-1.63-4.08-.71-1.11-1.61-1.98-2.69-2.6-1.08-.63-2.31-.94-3.71-.94-1.56,0-2.89.36-3.99,1.08-1.09.72-1.98,1.68-2.67,2.88-.65,1.15-1.14,2.5-1.45,4.05-.33,1.54-.48,3.17-.48,4.87,0,1.88.17,3.58.51,5.1.34,1.52.87,2.87,1.6,4.05.7,1.15,1.58,2.05,2.65,2.7,1.07.65,2.35.97,3.83.97,1.39,0,2.65-.33,3.76-.98,1.12-.65,2.04-1.57,2.74-2.75Z"/><path class="cls-1" d="M554.23,223.13c1.51.65,3.09.98,4.74.98,2.53,0,4.73-.59,6.57-1.77,1.84-1.18,3.32-3.15,4.44-5.91l-1.48-.7c-.31.86-.72,1.66-1.21,2.39-.48.73-1.06,1.39-1.71,1.96-.64.55-1.4.99-2.29,1.32-.88.34-1.84.5-2.89.5-1.4,0-2.66-.31-3.8-.94-1.13-.63-2.1-1.49-2.94-2.61-.83-1.12-1.47-2.42-1.9-3.91-.45-1.48-.67-3.11-.67-4.89,0-2.01.21-3.84.64-5.47.43-1.63,1.02-2.98,1.77-4.04.79-1.1,1.73-1.93,2.8-2.49,1.08-.56,2.25-.84,3.51-.84,1.1,0,2.07.25,2.93.75.86.5,1.59,1.19,2.22,2.08.55.78,1.04,1.73,1.45,2.86.41,1.12.72,2.16.93,3.13h1.6l-.17-9.9h-1.56l-.8,1.33c-.99-.61-2.05-1.09-3.15-1.42-1.1-.34-2.33-.51-3.7-.51-1.83,0-3.55.35-5.16,1.06-1.61.7-3,1.7-4.19,3-1.19,1.3-2.13,2.86-2.81,4.67-.67,1.81-1.02,3.82-1.02,6.05s.35,4.22,1.04,5.99c.68,1.77,1.61,3.27,2.76,4.5,1.16,1.23,2.5,2.17,4.02,2.83Z"/><path class="cls-1" d="M406.47,223.42h-12.47v-1.4c.28-.02.65-.05,1.13-.08h0l.4-.03c.66-.05,1.13-.13,1.4-.24.43-.17.73-.4.93-.69.2-.29.29-.7.29-1.22v-20.11c0-.46-.07-.84-.21-1.15-.15-.3-.48-.56-1.01-.77-.4-.16-.88-.3-1.48-.44-.6-.14-1.08-.22-1.46-.24v-1.4h12.47v1.4c-.41.01-.89.06-1.45.14-.56.09-1.05.19-1.47.32-.49.16-.83.41-.99.76-.17.35-.25.75-.25,1.18v20.09c0,.43.1.81.28,1.14.19.34.51.6.96.79.27.1.72.22,1.34.34.62.12,1.14.19,1.57.21v1.4Z"/><path class="cls-1" d="M438.17,197.04c-.37.01-.92.12-1.68.31-.74.2-1.29.4-1.61.61-.47.33-.79.95-.94,1.88-.17.93-.24,2.11-.24,3.53v20.35h-1.68l-16.77-22.74v14.32c0,1.61.1,2.84.3,3.7.2.86.51,1.48.93,1.84.29.29.92.56,1.85.8.94.25,1.56.38,1.86.39v1.4h-11.35v-1.4c.36-.02.94-.15,1.77-.38.84-.23,1.35-.44,1.56-.61.45-.37.76-.93.93-1.68.17-.75.25-2.03.25-3.85v-13.67c0-.6-.11-1.2-.31-1.8-.2-.6-.48-1.06-.84-1.39-.46-.43-1.1-.8-1.89-1.1-.81-.31-1.44-.47-1.95-.5v-1.4h7.89l15.56,21.16v-13.19c0-1.61-.09-2.85-.3-3.72-.21-.87-.51-1.44-.9-1.73-.37-.25-.96-.49-1.78-.72-.83-.24-1.45-.36-1.88-.39v-1.4h11.22v1.4Z"/><path class="cls-1" d="M462.84,203.17h1.36v-7.53h-24.13v7.53h1.36c.12-.43.33-.97.62-1.63.3-.66.65-1.28,1.04-1.87.39-.59.82-1.11,1.28-1.58.46-.46.91-.72,1.34-.78.54-.06,1.12-.11,1.72-.13.6-.02,1.1-.03,1.51-.03h1.13v22.39c0,.54-.11.96-.3,1.28-.2.32-.51.56-.95.74-.28.11-.8.21-1.55.29-.74.08-1.31.13-1.67.15v1.4h13.07v-1.4c-.41-.01-.99-.1-1.74-.25-.74-.16-1.24-.28-1.47-.37-.46-.19-.77-.47-.95-.83-.19-.36-.27-.76-.27-1.19v-22.22h1.13c.52,0,1.09.01,1.7.04.62.03,1.12.07,1.53.12.43.07.87.33,1.33.78.46.45.89.98,1.29,1.58.38.57.71,1.18,1.02,1.83.31.65.52,1.2.64,1.67Z"/><path class="cls-1" d="M489.59,215.25l-.52,8.18h-22.97v-1.4c.4-.02.91-.08,1.57-.16.65-.08,1.08-.17,1.27-.27.42-.19.71-.45.88-.76.16-.31.24-.71.24-1.19v-19.96c0-.43-.07-.81-.22-1.14-.14-.34-.44-.6-.9-.81-.35-.17-.83-.32-1.41-.45-.6-.13-1.07-.21-1.42-.23v-1.4h21.42v6.69h-1.49c-.25-.99-.82-2.04-1.67-3.15-.87-1.11-1.68-1.72-2.46-1.82-.41-.05-.89-.09-1.45-.12-.55-.03-1.19-.04-1.9-.04h-4.33v11.03h3.11c.99,0,1.72-.09,2.18-.28.46-.19.87-.51,1.21-.95.28-.38.52-.88.73-1.51.2-.64.34-1.23.4-1.79h1.48v10.87h-1.48c-.05-.63-.2-1.29-.42-1.99-.23-.69-.46-1.2-.71-1.51-.4-.51-.86-.84-1.37-1-.5-.16-1.18-.24-2.02-.24h-3.11v8.33c0,.84.05,1.49.18,1.98.11.48.33.85.68,1.09.34.25.8.41,1.38.48.59.07,1.41.11,2.49.11h1.7c.7,0,1.29-.03,1.77-.08.49-.05,1.01-.15,1.53-.28.52-.14.9-.32,1.12-.56.6-.63,1.22-1.58,1.87-2.85.66-1.27,1.08-2.21,1.26-2.81h1.4Z"/><path class="cls-1" d="M595.93,203.17h-1.36c-.12-.47-.33-1.02-.64-1.67-.3-.65-.65-1.26-1.03-1.83-.39-.6-.82-1.13-1.28-1.58-.46-.45-.9-.71-1.33-.78-.41-.05-.92-.09-1.53-.12-.61-.03-1.17-.04-1.7-.04h-1.13v22.22c0,.43.08.83.27,1.19.18.36.5.64.95.83.23.09.72.22,1.46.37.74.16,1.33.24,1.74.25v1.4h-13.05v-1.4c.36-.02.92-.07,1.66-.15.75-.08,1.27-.18,1.56-.29.42-.17.74-.42.94-.74.2-.32.3-.75.3-1.28v-22.39h-1.13c-.41,0-.91.01-1.51.03-.6.02-1.17.06-1.72.13-.43.06-.88.32-1.34.78-.46.46-.89.99-1.28,1.58-.39.59-.73,1.21-1.04,1.87-.29.66-.5,1.2-.62,1.63h-1.36v-7.53h24.13v7.53Z"/><path class="cls-1" d="M597.8,223.42h12.46v-1.4c-.43-.01-.95-.08-1.57-.21-.62-.12-1.06-.24-1.33-.34-.46-.19-.77-.46-.97-.79-.19-.33-.28-.71-.28-1.14v-20.09c0-.43.08-.83.26-1.18.17-.35.5-.6.99-.76.41-.13.9-.24,1.46-.32.57-.09,1.05-.13,1.45-.14v-1.4h-12.46v1.4c.38.03.86.11,1.45.24.59.14,1.08.28,1.47.44.53.21.87.47,1.02.77.15.3.21.69.21,1.15v20.11c0,.52-.09.93-.28,1.22-.2.29-.51.53-.94.69-.27.11-.74.18-1.4.24l-.2.02c-.56.04-1.01.08-1.32.1v1.4Z"/><path class="cls-1" d="M668.73,197.35c.75-.19,1.31-.3,1.67-.31v-1.4h-11.23v1.4c.43.03,1.06.15,1.89.39.83.24,1.42.48,1.78.72.4.28.69.86.9,1.73.21.87.32,2.11.32,3.72v13.19l-15.56-21.16h-7.89v1.4c.49.03,1.14.19,1.94.5.81.3,1.43.67,1.91,1.1.34.33.63.79.84,1.39.21.6.31,1.2.31,1.8v13.67c0,1.82-.08,3.1-.25,3.85-.17.75-.48,1.31-.94,1.68-.2.18-.72.38-1.55.61-.83.23-1.42.36-1.77.38v1.4h11.35v-1.4c-.3-.01-.92-.14-1.86-.39-.94-.25-1.56-.52-1.86-.8-.42-.36-.73-.98-.93-1.84-.2-.86-.3-2.09-.3-3.7v-14.32l16.77,22.74h1.69v-20.35c0-1.42.08-2.6.24-3.53.17-.92.48-1.55.95-1.88.32-.21.86-.41,1.61-.61Z"/><path class="cls-2" d="M708.82,209.7c0,2.36-.44,4.41-1.32,6.15-.89,1.74-2.04,3.16-3.46,4.27-1.42,1.11-3.04,1.94-4.82,2.49-1.78.55-3.62.82-5.52.82h-11.46v-1.4c.39,0,.88-.04,1.49-.11.61-.07,1.01-.15,1.2-.25.39-.17.67-.42.85-.75s.26-.74.26-1.2v-20.04c0-.44-.07-.84-.23-1.19-.15-.35-.45-.63-.9-.84-.41-.19-.85-.34-1.32-.43-.47-.09-.88-.15-1.22-.17v-1.4h12.1c1.66,0,3.31.26,4.92.77,1.61.52,3.02,1.21,4.21,2.09,1.63,1.16,2.91,2.68,3.83,4.56.92,1.88,1.38,4.09,1.38,6.64ZM704.03,209.69c0-1.87-.24-3.55-.73-5.06-.49-1.51-1.22-2.82-2.16-3.95-.9-1.07-2-1.91-3.3-2.52-1.31-.62-2.75-.92-4.34-.92-.53,0-1.13.01-1.8.03-.67.02-1.16.03-1.49.05v21.35c0,1.19.35,2.01,1.03,2.47.69.46,1.75.68,3.17.68,1.64,0,3.09-.29,4.31-.88,1.23-.59,2.23-1.4,2.99-2.45.81-1.1,1.39-2.37,1.76-3.8.38-1.45.55-3.11.55-5Z"/><path class="cls-1" d="M735.01,223.42l.52-8.18h-1.4c-.18.6-.6,1.53-1.26,2.81-.65,1.27-1.28,2.22-1.87,2.85-.22.24-.6.42-1.12.56-.52.14-1.04.23-1.53.28-.48.05-1.07.08-1.77.08h-1.7c-1.08,0-1.9-.04-2.49-.11-.59-.07-1.05-.23-1.38-.48-.34-.25-.57-.61-.69-1.09-.11-.48-.17-1.14-.17-1.98v-8.33h3.11c.84,0,1.52.08,2.02.24.51.16.97.49,1.37,1,.25.31.48.82.71,1.51.23.7.37,1.36.42,1.99h1.48v-10.87h-1.48c-.07.56-.2,1.15-.4,1.79-.21.63-.45,1.14-.73,1.51-.35.44-.75.76-1.22.95-.46.19-1.18.28-2.18.28h-3.11v-11.03h4.33c.71,0,1.35.02,1.91.04.55.03,1.04.06,1.45.12.77.11,1.59.71,2.46,1.82.86,1.11,1.42,2.16,1.69,3.15h1.48v-6.69h-21.42v1.4c.35.03.83.1,1.42.23.6.13,1.07.28,1.41.45.46.21.76.48.9.81.15.33.22.71.22,1.14v19.96c0,.48-.08.88-.24,1.19-.17.32-.46.57-.88.76-.19.09-.62.18-1.27.27-.66.08-1.17.14-1.57.16v1.4h22.97Z"/><path class="cls-1" d="M755.63,210.67c.59.65,1.02,1.37,1.3,2.14.28.78.42,1.68.42,2.72,0,2.45-.9,4.48-2.71,6.07-1.8,1.59-4.05,2.39-6.73,2.39-1.22,0-2.46-.19-3.7-.58-1.24-.39-2.3-.86-3.2-1.4l-.84,1.42h-1.56l-.27-9.5h1.59c.33,1.17.7,2.23,1.14,3.17.44.95,1.01,1.82,1.73,2.65.67.77,1.46,1.38,2.36,1.83.9.46,1.95.68,3.15.68.89,0,1.68-.12,2.35-.35.67-.23,1.21-.57,1.62-.99.42-.43.72-.94.93-1.51.2-.58.3-1.25.3-2.01,0-1.1-.31-2.14-.94-3.1-.62-.96-1.55-1.68-2.78-2.18-.85-.34-1.81-.72-2.9-1.13-1.1-.41-2.04-.8-2.83-1.17-1.56-.7-2.78-1.63-3.63-2.77-.87-1.14-1.3-2.63-1.3-4.48,0-1.06.21-2.04.64-2.96.43-.91,1.05-1.73,1.83-2.45.75-.68,1.64-1.21,2.67-1.6,1.03-.39,2.1-.58,3.22-.58,1.27,0,2.41.19,3.41.59,1.02.39,1.93.86,2.76,1.38l.8-1.33h1.56l.16,9.22h-1.59c-.29-1.06-.61-2.07-.96-3.03-.37-.97-.83-1.84-1.39-2.62-.57-.76-1.24-1.36-2.05-1.81-.8-.45-1.79-.67-2.96-.67-1.24,0-2.28.39-3.15,1.19-.87.79-1.31,1.76-1.31,2.91s.28,2.19.84,2.98c.57.79,1.37,1.44,2.44,1.94.95.46,1.89.85,2.79,1.19.92.33,1.8.69,2.66,1.07.79.34,1.53.73,2.25,1.16.72.43,1.35.94,1.88,1.51Z"/><path class="cls-1" d="M760.46,223.42h12.47v-1.4c-.43-.01-.95-.08-1.57-.21-.62-.12-1.06-.24-1.33-.34-.46-.19-.79-.46-.97-.79-.19-.33-.28-.71-.28-1.14v-20.09c0-.43.08-.83.25-1.18.18-.35.5-.6,1.01-.76.41-.13.9-.24,1.46-.32.57-.09,1.05-.13,1.44-.14v-1.4h-12.47v1.4c.38.03.87.11,1.46.24.6.14,1.09.28,1.48.44.53.21.87.47,1.02.77.15.3.21.69.21,1.15v20.11c0,.52-.09.93-.29,1.22-.19.29-.5.53-.93.69-.27.11-.74.18-1.4.24l-.2.02c-.57.04-1.01.08-1.33.1v1.4Z"/><path class="cls-1" d="M803.18,212.32c-.31.04-.73.1-1.26.18-.52.08-.95.2-1.28.36-.39.19-.66.48-.82.84-.17.36-.25.78-.25,1.27v2.16c.01,1.57.01,2.63.03,3.18.02.55.04,1,.07,1.36-1.73.79-3.46,1.39-5.16,1.81-1.72.42-3.4.63-5.05.63-1.77,0-3.48-.33-5.11-1-1.63-.67-3.07-1.61-4.28-2.84-1.23-1.24-2.22-2.75-2.94-4.53-.72-1.78-1.09-3.76-1.09-5.96s.34-4.08,1.04-5.89c.7-1.81,1.68-3.38,2.95-4.72,1.24-1.3,2.7-2.32,4.41-3.05,1.72-.73,3.54-1.09,5.49-1.09,1.56,0,2.92.19,4.07.57,1.15.38,2.18.83,3.06,1.37l.79-1.33h1.56l.17,9.71h-1.6c-.27-1.07-.62-2.12-1.01-3.15-.4-1.04-.92-1.96-1.56-2.78-.64-.82-1.41-1.47-2.32-1.96-.92-.49-2.01-.73-3.29-.73-1.38,0-2.63.28-3.72.85-1.09.57-2.04,1.41-2.85,2.54-.78,1.09-1.4,2.44-1.83,4.06-.42,1.62-.64,3.43-.64,5.43,0,1.77.21,3.43.63,4.99.43,1.56,1.04,2.91,1.84,4.05.81,1.17,1.81,2.08,3.03,2.75,1.2.67,2.58,1,4.1,1,1.15,0,2.19-.18,3.13-.53.94-.36,1.6-.73,2-1.13.1-.68.16-1.37.17-2.06v-3.31c0-.55-.07-1.04-.22-1.47-.15-.43-.46-.74-.93-.94-.43-.19-1.02-.34-1.75-.44-.73-.1-1.31-.16-1.73-.18v-1.41h12.14v1.41Z"/><path class="cls-1" d="M832.07,197.35c.75-.19,1.32-.3,1.67-.31v-1.4h-11.22v1.4c.43.03,1.06.15,1.88.39.83.24,1.41.48,1.78.72.39.28.69.86.9,1.73.21.87.32,2.11.32,3.72v13.19l-15.57-21.16h-7.89v1.4c.5.03,1.15.19,1.95.5.8.3,1.43.67,1.9,1.1.35.33.63.79.84,1.39.21.6.31,1.2.31,1.8v13.67c0,1.82-.08,3.1-.26,3.85-.17.75-.47,1.31-.93,1.68-.21.18-.72.38-1.56.61-.83.23-1.41.36-1.77.38v1.4h11.35v-1.4c-.3-.01-.92-.14-1.86-.39-.93-.25-1.55-.52-1.85-.8-.42-.36-.73-.98-.93-1.84-.2-.86-.3-2.09-.3-3.7v-14.32l16.77,22.74h1.68v-20.35c0-1.42.08-2.6.24-3.53.17-.92.48-1.55.94-1.88.32-.21.87-.41,1.61-.61Z"/><path class="cls-2" d="M474.42,254.63c-1.12-2.95-2.68-5.46-4.67-7.55-1.93-2.04-4.22-3.63-6.87-4.76-2.65-1.13-5.46-1.69-8.45-1.69s-5.64.55-8.28,1.66c-2.64,1.11-4.95,2.71-6.94,4.79-2.01,2.11-3.59,4.6-4.73,7.49-1.14,2.89-1.72,6.17-1.72,9.85,0,3.36.54,6.52,1.63,9.47,1.1,2.95,2.6,5.45,4.5,7.52,1.9,2.11,4.19,3.76,6.85,4.94,2.66,1.18,5.56,1.77,8.69,1.77,2.94,0,5.72-.55,8.32-1.66,2.61-1.11,4.9-2.68,6.87-4.73,2.03-2.06,3.62-4.57,4.76-7.5,1.14-2.94,1.72-6.21,1.72-9.8s-.57-6.84-1.68-9.79ZM467.62,272.64c-.54,2.45-1.4,4.64-2.59,6.59-1.15,1.92-2.64,3.41-4.46,4.48-1.82,1.07-3.86,1.6-6.14,1.6-2.42,0-4.49-.53-6.23-1.58-1.74-1.06-3.18-2.52-4.32-4.4-1.19-1.92-2.06-4.11-2.62-6.59-.55-2.48-.82-5.25-.82-8.32,0-2.77.25-5.42.78-7.93.52-2.52,1.31-4.71,2.37-6.59,1.13-1.96,2.58-3.53,4.35-4.7,1.78-1.17,3.95-1.76,6.49-1.76,2.27,0,4.28.5,6.04,1.52,1.76,1.01,3.22,2.42,4.39,4.23,1.17,1.83,2.05,4.05,2.66,6.65.61,2.61.9,5.46.9,8.58s-.26,5.77-.81,8.22Z"/><path class="cls-1" d="M525.78,244.02c-.59.02-1.46.15-2.6.38-1.14.24-2.06.59-2.79,1.06-.72.49-1.21,1.5-1.49,3.03-.28,1.53-.42,3.4-.42,5.61v19.68c0,2.51-.51,4.69-1.55,6.54-1.04,1.85-2.41,3.37-4.1,4.57-1.67,1.15-3.43,1.97-5.29,2.47-1.85.5-3.62.75-5.32.75-2.71,0-5.12-.36-7.24-1.07-2.11-.71-3.89-1.68-5.33-2.89-1.42-1.21-2.49-2.6-3.21-4.16-.71-1.57-1.08-3.2-1.08-4.9v-26.77c0-.75-.12-1.37-.37-1.86-.25-.5-.74-.96-1.5-1.39-.53-.3-1.23-.54-2.06-.72-.84-.18-1.52-.3-2.06-.34v-2.29h18.75v2.29c-.6.02-1.33.12-2.23.29-.89.17-1.55.33-1.97.48-.71.26-1.19.68-1.43,1.28-.24.59-.36,1.24-.36,1.94v25c0,1.21.12,2.49.4,3.82.26,1.32.79,2.56,1.58,3.71.83,1.17,1.96,2.12,3.39,2.87,1.42.74,3.38,1.11,5.87,1.11,2.34,0,4.31-.37,5.89-1.11,1.59-.75,2.85-1.72,3.76-2.94.88-1.15,1.5-2.35,1.85-3.6.37-1.26.54-2.52.54-3.8v-18.56c0-2.36-.17-4.29-.51-5.79-.33-1.5-.84-2.49-1.5-2.95-.74-.53-1.76-.95-3.05-1.25-1.29-.29-2.27-.47-2.94-.51v-2.29h18.34v2.29Z"/><path class="cls-1" d="M574.52,244.53c1.23-.32,2.14-.49,2.73-.51v-2.29h-18.29v2.29c.7.04,1.72.26,3.07.64,1.34.38,2.31.78,2.9,1.18.64.47,1.12,1.4,1.46,2.81.33,1.41.5,3.43.5,6.07v21.49l-25.35-34.47h-12.86v2.29c.81.04,1.86.32,3.16.81,1.31.5,2.33,1.1,3.1,1.8.58.53,1.04,1.28,1.37,2.26.33.98.51,1.95.51,2.93v22.28c0,2.95-.15,5.04-.42,6.26-.27,1.22-.78,2.13-1.52,2.72-.35.3-1.18.63-2.53,1-1.36.37-2.32.58-2.89.62v2.29h18.49v-2.28c-.49-.03-1.51-.24-3.04-.64-1.53-.4-2.54-.84-3.02-1.31-.69-.59-1.19-1.59-1.52-2.99-.33-1.4-.49-3.41-.49-6.03v-23.33l27.32,37.05h2.73v-33.14c0-2.32.14-4.23.4-5.74.26-1.51.79-2.53,1.54-3.06.53-.34,1.4-.67,2.63-.99Z"/><path class="cls-2" d="M624.12,264.64c0,3.85-.72,7.19-2.17,10.01-1.43,2.83-3.31,5.14-5.61,6.96-2.33,1.81-4.95,3.16-7.85,4.05-2.9.9-5.89,1.34-8.98,1.34h-18.67v-2.29c.62,0,1.41-.05,2.41-.17.98-.12,1.63-.25,1.96-.4.64-.27,1.1-.68,1.38-1.22.29-.54.43-1.2.43-1.96v-32.63c0-.72-.11-1.37-.37-1.94-.25-.57-.73-1.03-1.47-1.37-.67-.32-1.38-.55-2.16-.7-.77-.15-1.43-.25-2-.29v-2.29h19.71c2.71,0,5.39.42,8.02,1.26,2.63.84,4.91,1.97,6.87,3.4,2.65,1.89,4.72,4.37,6.23,7.43,1.51,3.06,2.25,6.67,2.26,10.82ZM616.31,264.62c0-3.04-.41-5.79-1.2-8.24-.81-2.45-1.98-4.6-3.52-6.43-1.46-1.74-3.25-3.11-5.37-4.11-2.12-1-4.48-1.5-7.08-1.5-.87,0-1.84.02-2.93.05-1.09.03-1.89.06-2.42.08v34.78c0,1.93.56,3.28,1.68,4.02,1.12.75,2.84,1.11,5.16,1.11,2.68,0,5.02-.48,7.03-1.43,2-.96,3.63-2.28,4.88-3.98,1.31-1.79,2.26-3.85,2.86-6.2.61-2.35.91-5.07.91-8.14Z"/><path class="cls-2" d="M653.04,287h18.74v-2.28c-.53-.03-1.19-.14-1.98-.34-.79-.21-1.41-.45-1.91-.75-.72-.49-1.28-.99-1.68-1.5-.4-.51-.77-1.18-1.08-2.01l-15.03-39.04h-2.54l-2.08,5.39c-1.6,4.14-3.34,8.65-5.23,13.53-2.73,7.08-5.23,13.46-7.5,19.14-.45,1.11-.9,1.97-1.37,2.6-.47.63-1.12,1.23-1.97,1.8-.53.34-1.21.61-2.04.81-.82.2-1.51.32-2.06.36v2.29h17v-2.28c-1.68-.09-3.18-.37-4.51-.83-1.34-.47-2.01-1.13-2.01-1.98,0-.36.06-.82.17-1.4.1-.57.29-1.31.57-2.23.3-.94.64-1.96,1.01-3.06.38-1.1.86-2.4,1.44-3.89h15.83l3.74,10.13c.08.22.15.46.19.74.04.28.06.51.06.7,0,.47-.54.86-1.63,1.18-1.1.32-2.47.53-4.11.64v2.29ZM646.82,250.93l6.84,17.58h-13.58l6.74-17.58Z"/><path class="cls-1" d="M710.1,254.02h-2.21c-.2-.77-.54-1.68-1.04-2.73-.5-1.05-1.06-2.04-1.67-2.98-.63-.98-1.33-1.83-2.08-2.57-.74-.73-1.48-1.15-2.18-1.26-.65-.08-1.49-.15-2.48-.19-1-.04-1.92-.06-2.76-.06h-1.84v36.19c0,.7.15,1.35.44,1.93.29.59.82,1.04,1.55,1.36.39.15,1.18.35,2.4.61,1.21.25,2.16.39,2.84.42v2.28h-21.28v-2.29c.6-.04,1.5-.13,2.72-.25,1.21-.13,2.06-.29,2.53-.48.7-.28,1.21-.68,1.54-1.2.33-.52.49-1.22.49-2.09v-36.48h-1.84c-.66,0-1.48.02-2.45.05-.97.03-1.91.1-2.8.2-.7.09-1.42.5-2.18,1.26-.75.76-1.45,1.61-2.08,2.57-.64.96-1.2,1.98-1.69,3.05-.49,1.08-.83,1.96-1.02,2.67h-2.22v-12.29h39.31v12.29Z"/><path class="cls-1" d="M715.14,287h20.3v-2.28c-.7-.03-1.55-.14-2.55-.34-1.01-.21-1.73-.39-2.18-.56-.74-.32-1.27-.75-1.57-1.29-.31-.54-.46-1.16-.46-1.87v-32.73c0-.7.14-1.33.41-1.91.27-.58.82-.99,1.62-1.25.68-.22,1.48-.39,2.39-.53.91-.14,1.69-.22,2.34-.24v-2.29h-20.3v2.29c.61.04,1.4.18,2.37.4.96.23,1.76.46,2.4.72.87.34,1.42.76,1.65,1.26.23.5.35,1.12.35,1.86v32.76c0,.85-.16,1.51-.47,1.99-.32.48-.83.86-1.53,1.13-.45.17-1.21.3-2.29.38-1.08.08-1.9.15-2.47.19v2.29Z"/><path class="cls-2" d="M775.52,247.07c1.99,2.09,3.55,4.6,4.67,7.55s1.69,6.21,1.69,9.79-.58,6.87-1.72,9.8c-1.15,2.94-2.73,5.44-4.77,7.5-1.97,2.04-4.25,3.62-6.86,4.73-2.61,1.11-5.38,1.66-8.32,1.66-3.14,0-6.04-.59-8.7-1.77-2.65-1.18-4.93-2.83-6.85-4.94-1.9-2.07-3.4-4.57-4.49-7.52-1.09-2.95-1.64-6.11-1.64-9.47,0-3.68.58-6.97,1.72-9.85,1.15-2.88,2.72-5.38,4.74-7.49,1.99-2.09,4.3-3.68,6.94-4.79,2.64-1.11,5.39-1.66,8.28-1.66s5.8.56,8.45,1.69c2.65,1.13,4.93,2.72,6.87,4.76ZM770.79,279.23c1.18-1.94,2.05-4.14,2.6-6.59.54-2.45.81-5.2.81-8.22s-.3-5.97-.91-8.58c-.6-2.6-1.49-4.82-2.65-6.65-1.16-1.81-2.63-3.23-4.39-4.23-1.76-1.01-3.78-1.52-6.04-1.52-2.54,0-4.71.58-6.49,1.76-1.78,1.17-3.24,2.74-4.36,4.7-1.06,1.88-1.85,4.07-2.38,6.59-.51,2.52-.77,5.16-.77,7.93,0,3.07.27,5.84.83,8.32.56,2.47,1.42,4.67,2.61,6.59,1.15,1.88,2.59,3.34,4.32,4.4,1.74,1.06,3.82,1.58,6.24,1.58,2.26,0,4.31-.53,6.14-1.6,1.82-1.07,3.31-2.56,4.45-4.48Z"/><path class="cls-1" d="M831.08,244.53c1.23-.32,2.14-.49,2.72-.51v-2.29h-18.28v2.29c.69.04,1.72.26,3.06.64,1.35.38,2.31.78,2.91,1.18.63.47,1.12,1.4,1.45,2.81.35,1.41.51,3.43.51,6.07v21.49l-25.34-34.47h-12.86v2.29c.81.04,1.86.32,3.16.81,1.3.5,2.34,1.1,3.1,1.8.57.53,1.03,1.28,1.36,2.26.35.98.51,1.95.51,2.93v22.28c0,2.95-.14,5.04-.41,6.26-.28,1.22-.79,2.13-1.53,2.72-.34.3-1.18.63-2.53,1-1.35.37-2.31.58-2.88.62v2.29h18.48v-2.28c-.49-.03-1.5-.24-3.03-.64-1.54-.4-2.54-.84-3.04-1.31-.68-.59-1.18-1.59-1.52-2.99-.32-1.4-.49-3.41-.49-6.03v-23.33l27.32,37.05h2.74v-33.14c0-2.32.14-4.23.4-5.74.26-1.51.78-2.53,1.54-3.06.52-.34,1.4-.67,2.63-.99Z"/><path class="cls-2" d="M517.44,221.92l-.11-.02c-.06-.01-.12-.02-.18-.03-.51-.09-.93-.22-1.27-.39-.46-.24-.92-.54-1.38-.91-.46-.37-.97-.95-1.55-1.73-1.31-1.78-2.42-3.28-3.32-4.52-.91-1.24-2.04-2.76-3.41-4.58.99-.28,1.9-.64,2.72-1.05.82-.41,1.52-.9,2.1-1.46.64-.6,1.12-1.31,1.45-2.13.32-.83.49-1.77.49-2.84,0-1.19-.24-2.21-.72-3.05-.48-.84-1.12-1.52-1.93-2.05-.84-.53-1.76-.92-2.79-1.16s-2.12-.36-3.3-.36h-12.76v1.4c.36.03.8.08,1.32.18.51.1.93.21,1.26.33.47.18.77.45.91.8.13.35.19.76.19,1.21v20.07c0,.51-.08.92-.26,1.25-.18.33-.45.58-.84.75-.23.1-.65.19-1.24.25-.59.07-1.03.12-1.34.14v1.4h11.66v-1.4c-.4-.01-.89-.06-1.48-.14-.59-.07-.99-.16-1.22-.25-.47-.18-.78-.45-.92-.79-.14-.35-.21-.75-.21-1.2v-8.8h2.83c1.56,2.01,3.01,3.96,4.33,5.85,1.33,1.9,2.83,4.14,4.47,6.74h6.49v-1.51ZM501.87,209.15h-2.55v-11.91h3.31c1.76,0,3.12.49,4.07,1.48.96.98,1.45,2.32,1.45,4,0,1.98-.6,3.55-1.79,4.7-1.19,1.16-2.69,1.73-4.48,1.73Z"/><path class="cls-2" d="M546.03,221.82c-.47-.13-.87-.28-1.16-.46-.45-.3-.8-.61-1.04-.92-.25-.32-.47-.73-.67-1.23l-9.22-23.97h-1.56c-1.32,3.39-2.82,7.27-4.49,11.61-1.68,4.35-3.21,8.26-4.61,11.75-.27.68-.54,1.21-.84,1.6-.28.38-.69.75-1.2,1.11-.33.21-.74.37-1.26.5-.06.01-.1.02-.16.03v1.59h9.33v-1.4c-1.03-.05-1.95-.22-2.77-.51-.82-.29-1.23-.69-1.23-1.22,0-.22.03-.51.09-.86.07-.36.19-.81.36-1.37.18-.57.39-1.2.62-1.88.23-.68.52-1.47.89-2.39h9.72l2.29,6.23c.05.13.08.28.11.45.02.17.03.32.03.43,0,.29-.33.53-1.01.73-.67.19-1.51.33-2.52.39v1.4h11.51v-1.4c-.32-.01-.73-.08-1.21-.21ZM527.78,212.08l4.14-10.8,4.2,10.8h-8.33Z"/><path class="cls-1" d="M394,241.73v2.27c.57.04,1.34.17,2.3.38.98.21,1.76.46,2.33.73.74.34,1.23.79,1.47,1.34.23.53.35,1.15.35,1.85v32.67c0,.77-.15,1.43-.45,1.98-.27.53-.73.94-1.37,1.21-.32.15-1.01.28-2.07.38-1.06.08-1.91.15-2.55.19v2.26h19.62v-2.26c-.55-.02-1.36-.14-2.42-.35-1.06-.21-1.76-.39-2.07-.54-.7-.34-1.19-.79-1.47-1.34-.28-.55-.41-1.18-.41-1.88v-15.6h3.01c4.26,0,5.26.52,5.9,1.06.42.36.82.96,1.18,1.77.38.82.63,1.47.67,1.75h2.43v-11.75h-2.43c-.11.77-.34,1.5-.7,2.19-.34.67-.72,1.17-1.15,1.49-.62.47-1.64.9-5.9.9h-3.01v-18.09h12.09c4.26,0,5.26.52,5.9,1.06.42.36.82.96,1.18,1.77.38.82.67,1.74.67,1.74h2.43v-7.19h-35.51Z"/></svg>