<svg width="242" height="146" viewBox="0 0 242 146" fill="none" xmlns="http://www.w3.org/2000/svg">
<g clip-path="url(#clip0_425_18)">
<path d="M70.3899 68.2727V77H69.201V68.2727H70.3899ZM72.2809 77V70.4545H73.3803V71.4986H73.4656C73.6019 71.1435 73.8221 70.8665 74.1261 70.6676C74.4329 70.4688 74.8008 70.3693 75.2298 70.3693C75.6644 70.3693 76.0281 70.4688 76.3207 70.6676C76.6161 70.8665 76.8391 71.1435 76.9897 71.4986H77.0579C77.2198 71.1548 77.4698 70.8807 77.8079 70.6761C78.146 70.4716 78.5508 70.3693 79.0224 70.3693C79.6104 70.3693 80.0906 70.554 80.4627 70.9233C80.8377 71.2926 81.0252 71.8565 81.0252 72.6151V77H79.8874V72.6747C79.8874 72.2116 79.761 71.8793 79.5082 71.6776C79.2553 71.473 78.9556 71.3707 78.609 71.3707C78.1715 71.3707 77.832 71.5043 77.5906 71.7713C77.3491 72.0355 77.2283 72.3722 77.2283 72.7812V77H76.082V72.5852C76.082 72.2216 75.9656 71.929 75.7326 71.7074C75.5025 71.483 75.2042 71.3707 74.8377 71.3707C74.5849 71.3707 74.3505 71.4375 74.1346 71.571C73.9215 71.7045 73.7496 71.8892 73.619 72.125C73.4883 72.358 73.4229 72.6278 73.4229 72.9347V77H72.2809ZM84.7102 77.1491C84.2955 77.1491 83.919 77.071 83.581 76.9148C83.2457 76.7585 82.9787 76.5327 82.7798 76.2372C82.5838 75.9389 82.4858 75.5753 82.4858 75.1463C82.4858 74.7741 82.5582 74.4702 82.7031 74.2344C82.8509 73.9957 83.0469 73.8082 83.2912 73.6719C83.5355 73.5355 83.8068 73.4332 84.1051 73.3651C84.4034 73.2969 84.706 73.2443 85.0128 73.2074C85.4077 73.1562 85.7273 73.1165 85.9716 73.0881C86.2188 73.0597 86.3991 73.0128 86.5128 72.9474C86.6264 72.8821 86.6832 72.7699 86.6832 72.6108V72.5767C86.6832 72.1818 86.5739 71.875 86.3551 71.6562C86.1364 71.4375 85.8082 71.3281 85.3707 71.3281C84.9162 71.3281 84.5597 71.4276 84.3011 71.6264C84.0426 71.8253 83.8608 72.0426 83.7557 72.2784L82.6818 71.9716C82.8381 71.5739 83.0554 71.2585 83.3338 71.0256C83.6151 70.7898 83.929 70.6222 84.2756 70.5227C84.625 70.4205 84.9815 70.3693 85.3452 70.3693C85.581 70.3693 85.8409 70.3977 86.125 70.4545C86.4091 70.5085 86.679 70.6151 86.9347 70.7741C87.1932 70.9304 87.4063 71.1619 87.5739 71.4688C87.7415 71.7727 87.8253 72.1733 87.8253 72.6705V77H86.7003V76.1094H86.6491C86.5753 76.2628 86.4574 76.4205 86.2955 76.5824C86.1335 76.7415 85.9219 76.8764 85.6605 76.9872C85.3991 77.0952 85.0824 77.1491 84.7102 77.1491ZM84.9233 76.1861C85.3011 76.1861 85.6207 76.1122 85.8821 75.9645C86.1435 75.8168 86.3423 75.625 86.4787 75.3892C86.6179 75.1534 86.6875 74.902 86.6875 74.6349V73.7528C86.642 73.8011 86.5511 73.8452 86.4148 73.8849C86.2784 73.9247 86.1222 73.9588 85.946 73.9872C85.7727 74.0156 85.6023 74.0412 85.4347 74.0639C85.2699 74.0838 85.1335 74.1009 85.0256 74.1151C84.7727 74.1491 84.5384 74.2031 84.3224 74.277C84.1094 74.3509 83.9375 74.4602 83.8068 74.6051C83.679 74.7472 83.6151 74.9389 83.6151 75.1804C83.6151 75.5128 83.7386 75.7642 83.9858 75.9347C84.233 76.1023 84.5455 76.1861 84.9233 76.1861ZM92.2827 79.5909C91.7798 79.5909 91.348 79.5256 90.9872 79.3949C90.6264 79.267 90.3281 79.0966 90.0923 78.8835C89.8594 78.6705 89.6804 78.4403 89.5554 78.1932L90.5014 77.6861C90.5866 77.8082 90.696 77.9432 90.8295 78.0909C90.9659 78.2386 91.1506 78.3665 91.3835 78.4744C91.6165 78.5824 91.919 78.6364 92.2912 78.6364C92.7969 78.6364 93.2145 78.5128 93.544 78.2656C93.8736 78.0213 94.0384 77.6349 94.0384 77.1065V75.7983H93.9531C93.8793 75.929 93.7727 76.081 93.6335 76.2543C93.4943 76.4247 93.2983 76.5753 93.0455 76.706C92.7955 76.8338 92.4645 76.8977 92.0526 76.8977C91.5298 76.8977 91.0597 76.7756 90.642 76.5312C90.2273 76.2841 89.8991 75.9219 89.6577 75.4446C89.4162 74.9673 89.2955 74.3849 89.2955 73.6974C89.2955 73.0156 89.4134 72.4261 89.6491 71.929C89.8849 71.429 90.2116 71.044 90.6293 70.7741C91.0469 70.5043 91.5256 70.3693 92.0653 70.3693C92.483 70.3693 92.8168 70.4389 93.0668 70.5781C93.3168 70.7145 93.5099 70.8722 93.6463 71.0511C93.7855 71.2301 93.8935 71.3807 93.9702 71.5028H94.0639V70.4545H95.1761V77.1662C95.1761 77.7287 95.0469 78.1875 94.7884 78.5426C94.5327 78.9006 94.1861 79.1648 93.7486 79.3352C93.3111 79.5057 92.8224 79.5909 92.2827 79.5909ZM92.2614 75.9176C92.6477 75.9176 92.973 75.8295 93.2372 75.6534C93.5043 75.4744 93.7074 75.2173 93.8466 74.8821C93.9858 74.5469 94.0554 74.1463 94.0554 73.6804C94.0554 73.223 93.9872 72.821 93.8509 72.4744C93.7145 72.1278 93.5128 71.8565 93.2457 71.6605C92.9787 71.4616 92.6506 71.3622 92.2614 71.3622C91.858 71.3622 91.5213 71.4659 91.2514 71.6733C90.9815 71.8807 90.7784 72.1591 90.642 72.5085C90.5085 72.858 90.4418 73.2486 90.4418 73.6804C90.4418 74.1236 90.5099 74.5128 90.6463 74.848C90.7855 75.1832 90.9886 75.446 91.2557 75.6364C91.5256 75.8239 91.8608 75.9176 92.2614 75.9176ZM99.7358 77.1364C99.0966 77.1364 98.5469 76.9972 98.0866 76.7188C97.6264 76.4375 97.2713 76.0455 97.0213 75.5426C96.7741 75.0369 96.6506 74.4474 96.6506 73.7741C96.6506 73.1037 96.7741 72.5128 97.0213 72.0014C97.2713 71.4872 97.6193 71.0866 98.0653 70.7997C98.5142 70.5128 99.0384 70.3693 99.6378 70.3693C99.9929 70.3693 100.339 70.429 100.678 70.5483C101.018 70.6648 101.325 70.8523 101.598 71.1108C101.874 71.3665 102.091 71.7031 102.25 72.1207C102.412 72.5384 102.493 73.0483 102.493 73.6506V74.0895H97.3665V73.1776H101.355C101.355 72.8253 101.284 72.5128 101.142 72.2401C101.003 71.9645 100.804 71.7472 100.545 71.5881C100.29 71.429 99.9886 71.3494 99.642 71.3494C99.2614 71.3494 98.9318 71.4418 98.6534 71.6264C98.3778 71.8111 98.1648 72.0526 98.0142 72.3509C97.8636 72.6491 97.7884 72.9702 97.7884 73.3139V73.9744C97.7884 74.4403 97.8693 74.8366 98.0312 75.1634C98.196 75.4872 98.4247 75.7344 98.7173 75.9048C99.0099 76.0724 99.3509 76.1562 99.7401 76.1562C99.9929 76.1562 100.223 76.1207 100.43 76.0497C100.638 75.9759 100.815 75.8665 100.963 75.7216C101.114 75.5767 101.23 75.3949 101.312 75.1761L102.403 75.4233C102.304 75.7642 102.131 76.0639 101.884 76.3224C101.639 76.5781 101.334 76.7784 100.967 76.9233C100.604 77.0653 100.193 77.1364 99.7358 77.1364ZM107.369 77V68.2727H110.403C111.082 68.2727 111.642 68.3963 112.082 68.6435C112.525 68.8906 112.855 69.2259 113.071 69.6491C113.287 70.0696 113.395 70.5426 113.395 71.0682C113.395 71.5937 113.287 72.0682 113.071 72.4915C112.855 72.9148 112.527 73.2514 112.086 73.5014C111.646 73.7486 111.086 73.8722 110.407 73.8722H108.281V72.8452H110.331C110.779 72.8452 111.142 72.767 111.417 72.6108C111.693 72.4545 111.893 72.2429 112.018 71.9759C112.146 71.7088 112.21 71.4062 112.21 71.0682C112.21 70.7273 112.146 70.4247 112.018 70.1605C111.893 69.8935 111.691 69.6847 111.413 69.5341C111.135 69.3807 110.768 69.304 110.314 69.304H108.558V77H107.369ZM116.032 68.2727V77H114.89V68.2727H116.032ZM119.726 77.1491C119.311 77.1491 118.935 77.071 118.597 76.9148C118.261 76.7585 117.994 76.5327 117.795 76.2372C117.599 75.9389 117.501 75.5753 117.501 75.1463C117.501 74.7741 117.574 74.4702 117.719 74.2344C117.866 73.9957 118.063 73.8082 118.307 73.6719C118.551 73.5355 118.822 73.4332 119.121 73.3651C119.419 73.2969 119.722 73.2443 120.028 73.2074C120.423 73.1562 120.743 73.1165 120.987 73.0881C121.234 73.0597 121.415 73.0128 121.528 72.9474C121.642 72.8821 121.699 72.7699 121.699 72.6108V72.5767C121.699 72.1818 121.589 71.875 121.371 71.6562C121.152 71.4375 120.824 71.3281 120.386 71.3281C119.932 71.3281 119.575 71.4276 119.317 71.6264C119.058 71.8253 118.876 72.0426 118.771 72.2784L117.697 71.9716C117.854 71.5739 118.071 71.2585 118.349 71.0256C118.631 70.7898 118.945 70.6222 119.291 70.5227C119.641 70.4205 119.997 70.3693 120.361 70.3693C120.597 70.3693 120.857 70.3977 121.141 70.4545C121.425 70.5085 121.695 70.6151 121.95 70.7741C122.209 70.9304 122.422 71.1619 122.589 71.4688C122.757 71.7727 122.841 72.1733 122.841 72.6705V77H121.716V76.1094H121.665C121.591 76.2628 121.473 76.4205 121.311 76.5824C121.149 76.7415 120.938 76.8764 120.676 76.9872C120.415 77.0952 120.098 77.1491 119.726 77.1491ZM119.939 76.1861C120.317 76.1861 120.636 76.1122 120.898 75.9645C121.159 75.8168 121.358 75.625 121.494 75.3892C121.634 75.1534 121.703 74.902 121.703 74.6349V73.7528C121.658 73.8011 121.567 73.8452 121.43 73.8849C121.294 73.9247 121.138 73.9588 120.962 73.9872C120.788 74.0156 120.618 74.0412 120.45 74.0639C120.286 74.0838 120.149 74.1009 120.041 74.1151C119.788 74.1491 119.554 74.2031 119.338 74.277C119.125 74.3509 118.953 74.4602 118.822 74.6051C118.695 74.7472 118.631 74.9389 118.631 75.1804C118.631 75.5128 118.754 75.7642 119.001 75.9347C119.249 76.1023 119.561 76.1861 119.939 76.1861ZM127.315 77.1364C126.693 77.1364 126.156 76.9915 125.705 76.7017C125.256 76.4119 124.911 76.0128 124.669 75.5043C124.428 74.9957 124.307 74.4148 124.307 73.7614C124.307 73.0937 124.43 72.5057 124.678 71.9972C124.928 71.4886 125.276 71.0909 125.722 70.804C126.17 70.5142 126.696 70.3693 127.298 70.3693C127.778 70.3693 128.207 70.4574 128.585 70.6335C128.966 70.8097 129.276 71.0568 129.514 71.375C129.753 71.6932 129.898 72.0653 129.949 72.4915H128.824C128.753 72.1875 128.589 71.9233 128.334 71.6989C128.081 71.4716 127.743 71.358 127.32 71.358C126.945 71.358 126.616 71.456 126.335 71.652C126.057 71.8452 125.839 72.1193 125.683 72.4744C125.53 72.8295 125.453 73.2472 125.453 73.7273C125.453 74.2187 125.53 74.6449 125.683 75.0057C125.837 75.3665 126.053 75.6463 126.331 75.8452C126.612 76.044 126.942 76.1435 127.32 76.1435C127.572 76.1435 127.801 76.098 128.006 76.0071C128.21 75.9162 128.384 75.7869 128.526 75.6193C128.668 75.4489 128.767 75.2457 128.824 75.0099H129.949C129.895 75.4134 129.754 75.7756 129.527 76.0966C129.303 76.4176 129.003 76.6719 128.628 76.8594C128.253 77.044 127.815 77.1364 127.315 77.1364ZM134.154 77.1364C133.515 77.1364 132.965 76.9972 132.505 76.7188C132.044 76.4375 131.689 76.0455 131.439 75.5426C131.192 75.0369 131.069 74.4474 131.069 73.7741C131.069 73.1037 131.192 72.5128 131.439 72.0014C131.689 71.4872 132.037 71.0866 132.483 70.7997C132.932 70.5128 133.456 70.3693 134.056 70.3693C134.411 70.3693 134.757 70.429 135.096 70.5483C135.436 70.6648 135.743 70.8523 136.016 71.1108C136.292 71.3665 136.509 71.7031 136.668 72.1207C136.83 72.5384 136.911 73.0483 136.911 73.6506V74.0895H131.784V73.1776H135.773C135.773 72.8253 135.702 72.5128 135.56 72.2401C135.421 71.9645 135.222 71.7472 134.963 71.5881C134.708 71.429 134.407 71.3494 134.06 71.3494C133.679 71.3494 133.35 71.4418 133.071 71.6264C132.796 71.8111 132.583 72.0526 132.432 72.3509C132.282 72.6491 132.206 72.9702 132.206 73.3139V73.9744C132.206 74.4403 132.287 74.8366 132.449 75.1634C132.614 75.4872 132.843 75.7344 133.135 75.9048C133.428 76.0724 133.769 76.1562 134.158 76.1562C134.411 76.1562 134.641 76.1207 134.848 76.0497C135.056 75.9759 135.233 75.8665 135.381 75.7216C135.532 75.5767 135.648 75.3949 135.73 75.1761L136.821 75.4233C136.722 75.7642 136.549 76.0639 136.301 76.3224C136.057 76.5781 135.752 76.7784 135.385 76.9233C135.022 77.0653 134.611 77.1364 134.154 77.1364ZM139.528 73.0881V77H138.386V68.2727H139.52V71.4986H139.605C139.756 71.152 139.987 70.8778 140.3 70.6761C140.612 70.4716 141.024 70.3693 141.536 70.3693C141.982 70.3693 142.372 70.4602 142.707 70.642C143.045 70.821 143.307 71.0938 143.491 71.4602C143.679 71.8267 143.773 72.2869 143.773 72.8409V77H142.631V72.9517C142.631 72.4517 142.501 72.0639 142.243 71.7884C141.987 71.5128 141.631 71.375 141.173 71.375C140.858 71.375 140.575 71.4418 140.325 71.5753C140.078 71.7088 139.884 71.9034 139.741 72.1591C139.599 72.4148 139.528 72.7244 139.528 73.0881ZM148.257 77.1364C147.654 77.1364 147.127 76.9957 146.676 76.7145C146.224 76.4304 145.873 76.0355 145.623 75.5298C145.373 75.0241 145.248 74.4347 145.248 73.7614C145.248 73.0795 145.373 72.4844 145.623 71.9759C145.873 71.4673 146.224 71.0724 146.676 70.7912C147.127 70.5099 147.654 70.3693 148.257 70.3693C148.859 70.3693 149.386 70.5099 149.838 70.7912C150.289 71.0724 150.64 71.4673 150.89 71.9759C151.14 72.4844 151.265 73.0795 151.265 73.7614C151.265 74.4347 151.14 75.0241 150.89 75.5298C150.64 76.0355 150.289 76.4304 149.838 76.7145C149.386 76.9957 148.859 77.1364 148.257 77.1364ZM148.257 76.1477C148.683 76.1477 149.032 76.0384 149.305 75.8196C149.581 75.598 149.785 75.3068 149.919 74.946C150.052 74.5824 150.119 74.1861 150.119 73.7571C150.119 73.331 150.052 72.9361 149.919 72.5724C149.785 72.206 149.581 71.9119 149.305 71.6903C149.032 71.4659 148.683 71.3537 148.257 71.3537C147.833 71.3537 147.484 71.4659 147.208 71.6903C146.933 71.9119 146.728 72.206 146.595 72.5724C146.461 72.9361 146.395 73.331 146.395 73.7571C146.395 74.1861 146.461 74.5824 146.595 74.946C146.728 75.3068 146.933 75.598 147.208 75.8196C147.484 76.0384 147.833 76.1477 148.257 76.1477ZM153.884 68.2727V77H152.742V68.2727H153.884ZM158.123 77.1321C157.586 77.1321 157.11 76.9957 156.695 76.723C156.281 76.4474 155.955 76.0568 155.719 75.5511C155.484 75.0455 155.366 74.4432 155.366 73.7443C155.366 73.0455 155.484 72.4446 155.719 71.9418C155.955 71.4361 156.282 71.0483 156.7 70.7784C157.117 70.5057 157.596 70.3693 158.136 70.3693C158.553 70.3693 158.886 70.4389 159.133 70.5781C159.38 70.7145 159.572 70.8722 159.708 71.0511C159.844 71.2301 159.95 71.3807 160.023 71.5028H160.104V68.2727H161.242V77H160.134V75.9858H160.023C159.947 76.1165 159.839 76.2727 159.7 76.4545C159.56 76.6335 159.364 76.7912 159.112 76.9276C158.862 77.0639 158.532 77.1321 158.123 77.1321ZM158.332 76.1392C158.718 76.1392 159.043 76.0384 159.308 75.8366C159.575 75.6321 159.778 75.3494 159.917 74.9886C160.056 74.625 160.126 74.2045 160.126 73.7273C160.126 73.2557 160.058 72.8423 159.921 72.4872C159.785 72.1321 159.583 71.8565 159.316 71.6605C159.049 71.4616 158.721 71.3622 158.332 71.3622C157.928 71.3622 157.592 71.4673 157.322 71.6776C157.052 71.8849 156.849 72.1676 156.712 72.5256C156.579 72.8807 156.512 73.2812 156.512 73.7273C156.512 74.179 156.58 74.5881 156.717 74.9545C156.856 75.3182 157.059 75.6065 157.326 75.8196C157.596 76.0327 157.931 76.1392 158.332 76.1392ZM165.923 77.1364C165.284 77.1364 164.734 76.9972 164.274 76.7188C163.814 76.4375 163.459 76.0455 163.209 75.5426C162.962 75.0369 162.838 74.4474 162.838 73.7741C162.838 73.1037 162.962 72.5128 163.209 72.0014C163.459 71.4872 163.807 71.0866 164.253 70.7997C164.702 70.5128 165.226 70.3693 165.825 70.3693C166.18 70.3693 166.527 70.429 166.865 70.5483C167.206 70.6648 167.513 70.8523 167.786 71.1108C168.061 71.3665 168.278 71.7031 168.438 72.1207C168.599 72.5384 168.68 73.0483 168.68 73.6506V74.0895H163.554V73.1776H167.543C167.543 72.8253 167.472 72.5128 167.33 72.2401C167.19 71.9645 166.991 71.7472 166.733 71.5881C166.477 71.429 166.176 71.3494 165.83 71.3494C165.449 71.3494 165.119 71.4418 164.841 71.6264C164.565 71.8111 164.352 72.0526 164.202 72.3509C164.051 72.6491 163.976 72.9702 163.976 73.3139V73.9744C163.976 74.4403 164.057 74.8366 164.219 75.1634C164.384 75.4872 164.612 75.7344 164.905 75.9048C165.197 76.0724 165.538 76.1562 165.928 76.1562C166.18 76.1562 166.411 76.1207 166.618 76.0497C166.825 75.9759 167.003 75.8665 167.151 75.7216C167.301 75.5767 167.418 75.3949 167.5 75.1761L168.591 75.4233C168.491 75.7642 168.318 76.0639 168.071 76.3224C167.827 76.5781 167.521 76.7784 167.155 76.9233C166.791 77.0653 166.381 77.1364 165.923 77.1364ZM170.156 77V70.4545H171.26V71.4688H171.328C171.447 71.1307 171.66 70.8608 171.967 70.6591C172.277 70.4545 172.625 70.3523 173.011 70.3523C173.088 70.3523 173.18 70.3551 173.288 70.3608C173.399 70.3636 173.485 70.3693 173.548 70.3778V71.4986C173.505 71.4872 173.42 71.473 173.292 71.456C173.167 71.4361 173.039 71.4261 172.909 71.4261C172.599 71.4261 172.322 71.4915 172.078 71.6222C171.836 71.75 171.646 71.9276 171.507 72.1548C171.368 72.3821 171.298 72.6406 171.298 72.9304V77H170.156Z" fill="black"/>
<path d="M241.257 1.42875C241.494 1.28667 241.571 0.979542 241.429 0.742752C241.287 0.505962 240.98 0.429179 240.743 0.571254L241.257 1.42875ZM147.409 56.5713C147.173 56.7133 147.096 57.0205 147.238 57.2572C147.38 57.494 147.687 57.5708 147.924 57.4287L147.409 56.5713ZM94.5906 89.4287C94.8274 89.2867 94.9042 88.9795 94.7621 88.7428C94.62 88.506 94.3129 88.4292 94.0761 88.5713L94.5906 89.4287ZM0.742752 144.571C0.505962 144.713 0.429179 145.02 0.571254 145.257C0.713328 145.494 1.02046 145.571 1.25725 145.429L0.742752 144.571ZM1.25725 0.571254C1.02046 0.429179 0.713328 0.505962 0.571254 0.742752C0.429179 0.979542 0.505962 1.28667 0.742752 1.42875L1.25725 0.571254ZM94.0761 57.4287C94.3129 57.5708 94.62 57.494 94.7621 57.2572C94.9042 57.0205 94.8274 56.7133 94.5906 56.5713L94.0761 57.4287ZM147.924 88.5713C147.687 88.4292 147.38 88.506 147.238 88.7428C147.096 88.9795 147.173 89.2867 147.409 89.4287L147.924 88.5713ZM240.743 145.429C240.98 145.571 241.287 145.494 241.429 145.257C241.571 145.02 241.494 144.713 241.257 144.571L240.743 145.429ZM240.743 0.571254L147.409 56.5713L147.924 57.4287L241.257 1.42875L240.743 0.571254ZM94.0761 88.5713L0.742752 144.571L1.25725 145.429L94.5906 89.4287L94.0761 88.5713ZM0.742752 1.42875L94.0761 57.4287L94.5906 56.5713L1.25725 0.571254L0.742752 1.42875ZM147.409 89.4287L240.743 145.429L241.257 144.571L147.924 88.5713L147.409 89.4287Z" fill="black"/>
</g>
<rect x="0.5" y="0.5" width="241" height="145" rx="1.5" stroke="black" stroke-linejoin="round"/>
<defs>
<clipPath id="clip0_425_18">
<rect x="1" y="1" width="240" height="144" rx="1" fill="white"/>
</clipPath>
</defs>
</svg>
